<svg xmlns="http://www.w3.org/2000/svg" viewBox="0 0 78 78" width="40" height="40"><defs><style>.fail-1{fill:#ed4e39;}</style></defs><title>fail</title><g id="Layer_2" data-name="Layer 2"><g id="Layer_1-2" data-name="Layer 1"><path class="fail-1" d="M39,5A34,34,0,1,1,5,39,34,34,0,0,1,39,5m0-5A39,39,0,1,0,78,39,39,39,0,0,0,39,0Z"/><polygon class="fail-1" points="58.09 24.15 53.85 19.91 39 34.76 24.15 19.91 19.91 24.15 34.76 39 19.91 53.85 24.15 58.09 39 43.24 53.85 58.09 58.09 53.85 43.24 39 58.09 24.15"/></g></g></svg>
