<svg xmlns="http://www.w3.org/2000/svg" viewBox="0 0 78 78" width="40" height="40"><defs><style>.info-1{fill:#0860b8;}</style></defs><title>information</title><g id="Layer_2" data-name="Layer 2"><g id="Layer_1-2" data-name="Layer 1"><path class="info-1" d="M39,5A34,34,0,1,1,5,39,34,34,0,0,1,39,5m0-5A39,39,0,1,0,78,39,39,39,0,0,0,39,0Z"/><path class="info-1" d="M36.67,34.26H27.13V29.63h15.2V57.24h9.6V61.9H26.07V57.24h10.6Zm2-18.16a4.57,4.57,0,0,1,1.74.34,4.19,4.19,0,0,1,1.39.95,4.6,4.6,0,0,1,.94,1.4,4.44,4.44,0,0,1-.94,4.83,4.05,4.05,0,0,1-1.39.95,4.39,4.39,0,0,1-1.74.34,4.31,4.31,0,0,1-1.73-.34,4,4,0,0,1-1.4-.95,4.47,4.47,0,0,1-.93-4.83,4.39,4.39,0,0,1,.93-1.4,4.14,4.14,0,0,1,1.4-.95A4.48,4.48,0,0,1,38.63,16.1Z"/></g></g></svg>
