<svg xmlns="http://www.w3.org/2000/svg" viewBox="0 0 438 177"><defs><style>.bits_i--1,.bits_i--3,.bits_i--5{fill:#0860b8;}.bits_i--1,.bits_i--2,.bits_i--3,.bits_i--4{stroke:#0860b8;stroke-miterlimit:10;}.bits_i--1{stroke-width:4px;}.bits_i--2{fill:#cedff1;}.bits_i--2,.bits_i--3{stroke-width:6px;}.bits_i--4{fill:none;stroke-width:12px;}</style></defs><title>BITS</title><g id="Layer_2" data-name="Layer 2"><g id="Layer_1-2" data-name="Layer 1"><rect class="bits_i--1" x="12" y="30" width="126" height="126"/><rect class="bits_i--2" x="3" y="3" width="144" height="45"/><rect class="bits_i--2" x="3" y="66" width="144" height="45"/><rect class="bits_i--2" x="3" y="129" width="144" height="45"/><circle class="bits_i--3" cx="25.5" cy="25.5" r="4.5"/><circle class="bits_i--3" cx="25.5" cy="88.5" r="4.5"/><circle class="bits_i--3" cx="25.5" cy="151.5" r="4.5"/><line class="bits_i--1" x1="93" y1="21" x2="129" y2="21"/><line class="bits_i--1" x1="93" y1="30" x2="129" y2="30"/><line class="bits_i--1" x1="93" y1="84" x2="129" y2="84"/><line class="bits_i--1" x1="93" y1="93" x2="129" y2="93"/><line class="bits_i--1" x1="93" y1="147" x2="129" y2="147"/><line class="bits_i--1" x1="93" y1="156" x2="129" y2="156"/><rect class="bits_i--1" x="300" y="30" width="126" height="126"/><rect class="bits_i--2" x="291" y="3" width="144" height="45"/><rect class="bits_i--2" x="291" y="66" width="144" height="45"/><rect class="bits_i--2" x="291" y="129" width="144" height="45"/><circle class="bits_i--3" cx="313.5" cy="25.5" r="4.5"/><circle class="bits_i--3" cx="313.5" cy="88.5" r="4.5"/><circle class="bits_i--3" cx="313.5" cy="151.5" r="4.5"/><line class="bits_i--1" x1="381" y1="21" x2="417" y2="21"/><line class="bits_i--1" x1="381" y1="30" x2="417" y2="30"/><line class="bits_i--1" x1="381" y1="84" x2="417" y2="84"/><line class="bits_i--1" x1="381" y1="93" x2="417" y2="93"/><line class="bits_i--1" x1="381" y1="147" x2="417" y2="147"/><line class="bits_i--1" x1="381" y1="156" x2="417" y2="156"/><line class="bits_i--4" x1="178.72" y1="93" x2="259.28" y2="93"/><polygon class="bits_i--5" points="202.62 113.34 182.26 93 202.62 72.66 185.34 72.66 165 93 185.34 113.34 202.62 113.34"/><polygon class="bits_i--5" points="235.38 113.34 255.74 93 235.38 72.66 252.66 72.66 273 93 252.66 113.34 235.38 113.34"/></g></g></svg>
