<svg xmlns="http://www.w3.org/2000/svg" viewBox="0 0 612 495"><defs><style>.comp_on--1{fill:#b3b3b3;}.comp_on--2{fill:#8c8c8d;}.comp_on--3{fill:#4cdf83;}.comp_on--4{fill:#404041;}.comp_on--5{fill:#0860b8;}.comp_on--6{fill:#faf263;}.comp_on--7{fill:#fdf9b1;}.comp_on--8{fill:#303031;}.comp_on--9{fill:#fff;}.comp_on--10{fill:none;stroke:#fff;stroke-miterlimit:10;stroke-width:2px;}</style></defs><title>computer_on</title><g id="Layer_2" data-name="Layer 2"><g id="Layer_1-2" data-name="Layer 1"><rect class="comp_on--1" x="378" y="351" width="18" height="108"/><rect class="comp_on--2" x="378" y="351" width="18" height="36"/><rect class="comp_on--1" x="216" y="351" width="18" height="108"/><rect class="comp_on--2" x="216" y="351" width="18" height="36"/><rect class="comp_on--1" width="612" height="369"/><rect class="comp_on--3" x="18" y="18" width="576" height="333"/><polygon class="comp_on--2" points="432 486 180 486 216 450 396 450 432 486"/><polygon class="comp_on--1" points="459 477 153 477 135 495 477 495 459 477"/><rect class="comp_on--4" x="135" y="486" width="342" height="9"/><polygon class="comp_on--5" points="594 234 423 225 234 270 90 261 18 279 18 18 594 18 594 234"/><rect class="comp_on--6" x="36" y="32" width="18" height="9"/><rect class="comp_on--7" x="36" y="36" width="45" height="27"/><rect class="comp_on--6" x="36" y="86" width="18" height="9"/><rect class="comp_on--7" x="36" y="90" width="45" height="27"/><rect class="comp_on--8" x="18" y="333" width="576" height="18"/><g id="Windows_10_Icon" data-name="Windows 10 Icon"><path class="comp_on--9" d="M26.12,338.71c1.63-.25,3.25-.48,4.88-.71v4.28c-1.63,0-3.25,0-4.88,0Z"/><path class="comp_on--9" d="M22,339.28c1.22-.19,2.45-.35,3.68-.5v3.54l-3.68,0Z"/><path class="comp_on--9" d="M22,342.71c1.23,0,2.45,0,3.68,0v3.56L22,345.77Z"/><path class="comp_on--9" d="M26.12,342.74H31V347c-1.62-.25-3.25-.47-4.88-.69Z"/></g><rect class="comp_on--4" x="45" y="333" width="117" height="18"/><line class="comp_on--10" x1="585" y1="342" x2="576" y2="342"/><line class="comp_on--10" x1="567" y1="342" x2="558" y2="342"/><line class="comp_on--10" x1="549" y1="342" x2="540" y2="342"/><line class="comp_on--10" x1="531" y1="342" x2="522" y2="342"/><g id="Adaptiva_Logo_Flat" data-name="Adaptiva Logo Flat"><path class="comp_on--9" d="M249.07,203.69c-.29-1.59-.44-5.3-.44-5.3h0c-2.5,4.32-6.16,6.38-11.89,6.38s-11.95-2.86-11.95-10.05c0-10.34,12.1-11.37,18.78-11.37h5.13v-2.09s0-8.19-9.59-8.19a15.28,15.28,0,0,0-10.32,3.8l-2.55-3c3.21-3.07,8.48-4.75,12.87-4.75,8.19,0,13.45,3.66,13.48,12.21v8.27a97.74,97.74,0,0,0,.63,14.09Zm-.6-16.8h-4.82c-7.32,0-14.63,1.83-14.63,7.6,0,4.17,4,6.29,7.68,6.29,9.36,0,11.77-6,11.77-11.63v-2.26Zm39.81,16.8v-5.83h-.15c-2.7,4.68-8.48,6.8-13.53,6.8-10.38,0-17.76-7.46-17.76-17.77s7.38-17.77,17.76-17.77c5,0,10.83,2.12,13.53,6.8h.15V148.5h4.42v55.19Zm-13.69-30.62c-8.26,0-13.38,6.22-13.38,13.82s5.12,13.82,13.38,13.82a13.82,13.82,0,1,0,0-27.64Zm46.14,30.62c-.29-1.59-.44-5.3-.44-5.3h-.07c-2.49,4.32-6.16,6.38-11.88,6.38s-12-2.86-12-10.05c0-10.34,12.11-11.37,18.78-11.37h5.14v-2.09s0-8.19-9.58-8.19a15.23,15.23,0,0,0-10.31,3.8l-2.56-3c3.21-3.07,8.48-4.75,12.87-4.75,8.19,0,13.45,3.66,13.47,12.21v8.27a98.94,98.94,0,0,0,.64,14.09Zm-.43-16.8h-4.83c-7.31,0-14.62,1.83-14.62,7.6,0,4.17,4,6.29,7.67,6.29,9.36,0,11.78-6,11.78-11.63v-2.26Zm27.29,17.77c-5,0-10.82-2.12-13.53-6.8h-.14V220.5H329.5V170.08h4.42v5.84h.14c2.71-4.68,8.49-6.8,13.53-6.8,10.38,0,17.77,7.46,17.77,17.77s-7.39,17.77-17.77,17.77Zm-.09-31.59a13.82,13.82,0,1,0,0,27.64c8.26,0,13.38-6.21,13.38-13.82s-5.12-13.82-13.38-13.82Zm33.59,27.67a13.21,13.21,0,0,0,5-1.17l.36,4a19.75,19.75,0,0,1-5.75,1.17c-6.34,0-8.77-3.88-8.77-8.71V174H364.7v-3.89h7.43v-9.73h4.42v9.73h9.56V174h-9.73v22c0,3,1.76,4.76,4.71,4.76Zm10.28-40.83a3.29,3.29,0,1,1,3.29-3.29,3.28,3.28,0,0,1-3.29,3.29Zm2.17,44h-4.43V170.08h4.43v33.79Zm20.57,0h-4.53l-13.83-33.79h5l11.26,29,11-29h4.46l-13.31,33.79Zm37.59-.18c-.3-1.59-.44-5.3-.44-5.3h-.13c-2.49,4.32-6.16,6.38-11.88,6.38s-12-2.86-12-10.05c0-10.34,12.11-11.37,18.78-11.37h5.14v-2.09s1.23-8.19-9.53-8.19a15.25,15.25,0,0,0-10.31,3.8l-2.56-3c3.22-3.07,8.48-4.75,12.87-4.75,8.19,0,13.45,3.66,13.42,12.21v8.27a105.4,105.4,0,0,0,.69,14.09Zm-.49-16.8h-4.83c-7.31,0-14.63,1.83-14.63,7.6,0,4.17,4,6.29,7.68,6.29,9.36,0,11.78-6,11.78-11.63v-2.26Z"/><path class="comp_on--9" d="M456.87,170.08v2.48h-.18v-2.48h-.88v-.17h2.12v.17h-1.06Zm3.53,2.48v-2.3h0l-1,2.3h-.1l-1-2.3h0v2.3h-.35v-2.65h.37l1,2.22,1-2.22h.35v2.65Z"/><polygon class="comp_on--9" points="206.9 150.31 206.9 166.54 190.35 166.54 206.9 150.31"/><polygon class="comp_on--9" points="173.27 183.7 206.9 183.7 206.9 171.14 186.01 171.14 173.27 183.7"/><polygon class="comp_on--9" points="151.42 204.93 206.9 204.93 206.9 188.13 168.37 188.13 151.42 204.93"/></g></g></g></svg>
