<svg xmlns="http://www.w3.org/2000/svg" viewBox="0 0 294 402"><defs><style>.inv_i--1{fill:#9cbfe3;}.inv_i--1,.inv_i--2,.inv_i--3,.inv_i--4{stroke:#0860b8;stroke-miterlimit:10;stroke-width:6px;}.inv_i--2{fill:#cedff1;}.inv_i--3{fill:#0860b8;}.inv_i--4{fill:none;}</style></defs><title>Inventory</title><g id="Layer_2" data-name="Layer 2"><g id="Layer_1-2" data-name="Layer 1"><rect class="inv_i--1" x="3" y="39" width="288" height="360"/><rect class="inv_i--2" x="21" y="57" width="252" height="306"/><polygon class="inv_i--3" points="210 30 84 30 66 48 228 48 210 30"/><path class="inv_i--3" d="M147,3a18,18,0,0,0-18,18V39h36V21A18,18,0,0,0,147,3Zm0,27a9,9,0,1,1,9-9A9,9,0,0,1,147,30Z"/><rect class="inv_i--3" x="48" y="48" width="198" height="18"/><rect class="inv_i--2" x="48" y="93" width="27" height="27"/><line class="inv_i--2" x1="102" y1="93" x2="246" y2="93"/><line class="inv_i--2" x1="102" y1="111" x2="246" y2="111"/><line class="inv_i--2" x1="102" y1="129" x2="174" y2="129"/><rect class="inv_i--2" x="48" y="183" width="27" height="27"/><line class="inv_i--2" x1="102" y1="183" x2="246" y2="183"/><line class="inv_i--2" x1="102" y1="201" x2="246" y2="201"/><line class="inv_i--2" x1="102" y1="219" x2="174" y2="219"/><rect class="inv_i--2" x="48" y="255" width="27" height="27"/><line class="inv_i--2" x1="102" y1="255" x2="246" y2="255"/><line class="inv_i--2" x1="102" y1="273" x2="246" y2="273"/><line class="inv_i--2" x1="102" y1="291" x2="174" y2="291"/><polyline class="inv_i--4" points="57 102 66 111 93 84"/></g></g></svg>
