<svg width="26" height="26" xmlns="http://www.w3.org/2000/svg" viewBox="0 0 237.46 237.46"><defs><style>.lookup-1{fill:#9cbfe3;}.lookup-2{fill:#073971;}.lookup-3{fill:#0860b8;}</style></defs><title>lookup</title><g id="Layer_2" data-name="Layer 2"><g id="Layer_1-2" data-name="Layer 1"><path class="lookup-1" d="M27.45,27.45a63,63,0,1,0,89.1,0A63,63,0,0,0,27.45,27.45Z"/><rect class="lookup-2" x="129.82" y="107.32" width="18" height="63" transform="translate(-57.5 138.82) rotate(-45)"/><rect class="lookup-3" x="171.73" y="140.23" width="36" height="99" transform="translate(-78.59 189.73) rotate(-45)"/><path class="lookup-3" d="M21.09,21.09a72,72,0,1,0,101.82,0A72,72,0,0,0,21.09,21.09Zm89.09,89.09a54,54,0,1,1,0-76.36A54,54,0,0,1,110.18,110.18Z"/></g></g></svg>
