<svg xmlns="http://www.w3.org/2000/svg" viewBox="0 0 440 440"><defs><style>.network_i--1{fill:#cedff1;stroke:#0860b8;stroke-miterlimit:10;stroke-width:8px;}.network_i--2{fill:#0860b8;}</style></defs><title>Network</title><g id="Layer_2" data-name="Layer 2"><g id="Layer_1-2" data-name="Layer 1"><circle class="network_i--1" cx="220" cy="220" r="216"/><path class="network_i--2" d="M56.33,192.57s0-.06,0-.1C55.52,190.64,55.79,191.3,56.33,192.57Z"/><path class="network_i--2" d="M100.79,396l-.25-1.77-2-2,.51-1.52,1.51-1.26.76-.25s.5-2.52,1.26-3a9.11,9.11,0,0,0,1.76-2.27s-1.51-.76-1.76-1.52,1.51-1.26,2.27-1.51a2.74,2.74,0,0,0,2-2,4.63,4.63,0,0,1,1.51-2.28s5.3.26,6-1.51.25-3.79,0-5.06a2.81,2.81,0,0,1,.25-2l4.54.5,2.27-1.26,2,.76a5.07,5.07,0,0,0,0-2,11.94,11.94,0,0,1,0-3s1.77-2.52,2.77-3.78,2.27-1.27,2-3.53.76-5.31,2.52-6.57,7.57-2,7.57-2a5.64,5.64,0,0,0,1.76-2.52,7.23,7.23,0,0,1,1.77-2.77s1.26-3.8,1.76-5.82a31.83,31.83,0,0,0,.51-5.81s5-4.28,5.29-5.81a52.17,52.17,0,0,0,.26-5.55,11,11,0,0,1-3.29-2c-1.26-1.27-7.81-3.29-9.07-3.54s-2-1.51-4-2.28-3.78-1.25-3.78-1.25l-3.78-2a5.58,5.58,0,0,0-1.51-3.28c-1.52-1.77-1.77-3.29-2.78-3.54a30.42,30.42,0,0,1-3.28-1.26L113.4,298l-3.53-3.29-1.51-2.78-2.27-.5-4.29.26-1.77-.77-4.53-3.28-1,.51-1.51.5s-4-.25-2.53,0-1.51.76-1.51.76l-1.51.76-2.27,1.76S84,293.33,83.49,294c-.17-.26-2.37.47-2.37.47a10.3,10.3,0,0,0-2.52-.5,19.63,19.63,0,0,1-3.53-.76l-1.76-1.51s-.51.75-.51-1.52.51-.76-.25-4.05,2.27-4.29-2.52-4-5.3-.52-5.3-.52l-2.27-1.75L62,278.3l1.76-.26C62,278.3,67,276.28,67,276.28L66.75,274H62.14s-1.46,2.52-1.22,1.77-2.19,3.79-1.94,3-3.42,1.51-3.42,1.51l-2.93-1.26S50,272,50.19,271a25.24,25.24,0,0,0,.25-3.79l.24-3.79,3.42-2.77s3.65-2,4.88-1,3.41.5,3.41.5,2.68-1.77,3.41-1.51,2.44,1,2.44,1l1.94.5c-1.89-.47,2.7,2.28,2.7,3s-.25,3.28,1,4a5.1,5.1,0,0,0,2.44.76s1.71-4,1.23-4.8-3.67-5.81-3.67-5.81,4.64-4.29,5.12-5,2.45-.76,3.91-3.28a18.07,18.07,0,0,0,1.71-6.57s5.85-4.79,3.41-3.78,4.39-3,4.39-3l-.49-2s4.15-3.53,5.12-3.53,1.23,1.26,1.23,1.26,1.46-.26,3.16-.51,4.88-2.52,5.13-3.53,1,.25-2.2-2-2.93-3.79-2.93-3.79-.56-1.36-.81-2.15a9.33,9.33,0,0,1-2.6-.63L96.79,218a18.39,18.39,0,0,1,3.65-1.51c.73,0,1.47,1,1.47,1s1,1.76,1.7,2a2.65,2.65,0,0,0,1.71-.25l.24-1.26a2.74,2.74,0,0,1,1.23-1.26,6.08,6.08,0,0,0,2.43-1c1-.76,2.69-1.77,2.69-1.77s-3.42,6.56-3.18,7.32a2.74,2.74,0,0,0,2.2,1.77,21.36,21.36,0,0,1,3.17.5l-.47,1.93a1.37,1.37,0,0,1,1.93-.92,21.27,21.27,0,0,1,3.18,1.26s.12-1.66.19-2.24c-.12-.63-.44-3.56-.44-3.56l-.73-1.77-2.2-1-1.46-.75-.49-1.77.25-3.28a32.36,32.36,0,0,0-1.47-4.8l-1-1.52a41.91,41.91,0,0,1-3.9-3.28,17.07,17.07,0,0,1-2.44-4.29l-1-3.28s-3.66-6.31-2.43-4.54-1-3.53-1-3.53-2.43,2.27-2.19,3S98,191,97.27,191.72a2.59,2.59,0,0,1-1.7.75s-1.47,0-2-3a23.74,23.74,0,0,0-1.22-4.8l-2.93-2.27-2.19-2-2.44.25-3.41-.5-1,1.26s-.49,4.54-.25,3,0,2.52,0,2.52l-.72,4,.48,3s3.9,3,1,6.32L78,203.58v3.79c0,1.26,1.71,4.79.25,5.3s-2.21,1.26-3.42-.76-1.22-4.54-1.47-6.31a6.39,6.39,0,0,0-2-3.28l-2.92-.51a11.54,11.54,0,0,0-4.88-3.53c-2.69-.76-5.61-1.77-5.61-1.77l-1.67-3.94c1.6,3.83-2-2.11-2-2.11s1.46-7.07,2.19-8.08a37.61,37.61,0,0,1,3.17-3.28l1-2s2.68-1.26,3.41-2.27a17.9,17.9,0,0,0,1.47-4.29l2.19-.52a13.65,13.65,0,0,0-1.7,2.79c-.49,1.26-2.44.75-.49,2.77s2.68,2,2.68,2l2-1.26,1.47-.76,3.41,1.77,1.22-1.26a11.76,11.76,0,0,0-2.19-3.28c-1.47-1.52-2.69-3-2.69-3l-.24-3a25.57,25.57,0,0,1,2-1.77c1.22-1,1.22-4,1.22-4l-.49-2.77.73-1.52s-.48-2.78-1-3.28-1.47-1.77-2.93-1.77a4.73,4.73,0,0,0-2.68,1v2.72l-.5,1.5-1,1-.5,1.25v3.48l-1-.27-1-2.18.51-2.19L64,156.27s.26-.81-1-1.63a4.63,4.63,0,0,0-2.28-.82l-2.53-1.64.26-2.73L56.14,144s-.76-2.73-1-3.82,1.26-3.27,1.26-3.27l2-.82s.25-3.82,1.26-5.18a5.63,5.63,0,0,0,1-3l-3.29.28-1.51-.55-2.28-.27-.51.82-1,3.54s-.25,2.73-.25,4.1.51,5.72,0,7.08a22.34,22.34,0,0,1-1.26,2.74l-.76,2.18.76,3,1.26,1.36,2.53,1.37.25,1.91-1.26.27s-.26-.27-1.27-1.37a21.12,21.12,0,0,0-2-1.9l-2-.55L47.54,153l-1.77,1.64-.5.82,2.78,2.72-1.77,1.64L46,161.19a18,18,0,0,1-2.79.54,7.06,7.06,0,0,1-3.79-1.91l-2.78-3-2-.55s-1.77.82-2.53,1.1a3.59,3.59,0,0,0-2,1.9c-.25.83-3,2.19-4.55,2.46s-4.05-1.09-4.05-1.09l1-2.46-1.77-1.91-2-.54-2.28-.27-2.3-1A216,216,0,0,0,4,219l.45.49c3,3.28,3,6.31,3,6.31s-.5,7.57-.75,9.59-.5,4,0,5.56,1.26,2,2.52,3.54A17.36,17.36,0,0,1,11.77,248a12.21,12.21,0,0,0,3.79,4.29l1.76,1.27s.51,1.26,1.26,2.78,0,1.77,1.26,3,2.53.76,2.53,2-.26,2.27.5,3,1,.25,2,1.26a3.13,3.13,0,0,1,1,2L27.66,269s1,1.27,1.77,2.28,1.51.75,1.51,0a11.75,11.75,0,0,0-2-5.05c-1-1-1-1.52-1.77-2.28s-2-2.27-2-2.27-2.77-2.52-2.77-3.79a2,2,0,0,1,1-1.77l1.27,1.53a31.88,31.88,0,0,0,3.78,5.29c2.27,2.53,3.53,4.3,4.79,5.56s2,1,2.78,2.53a6.51,6.51,0,0,1,.75,3.27c0,.76.76,2.53,2.52,4.3s7.82,4.3,12.11,5.56a25.51,25.51,0,0,0,6.3,1.26l.76,1.26,1.26,1a2.35,2.35,0,0,0,1.51,0,8.16,8.16,0,0,1,1.77-.25s0-.51,1,.5l2.77,2.79a6.66,6.66,0,0,1,1,2c.25,1,2.52,1.26,3.53,2.26s.76,1.77,1.76,2.53-1.76.76,2.27,1a24.75,24.75,0,0,1,5.55.76s1,.75.51,3a18.08,18.08,0,0,1-3.28,6.58c-1.27,1.51-1.51,1.25-1.77,3.78s-.75,2.27-.5,4.05,2,3.78,3.78,6.55,2.52,5.31,4.28,8.85,2.78,3.78,6.31,5.8,3.28,4,3.28,4-1.26,13.14-1.77,14.4-.5,10.1-2.27,13.13-2,10.11-2.27,11.12,0,2.77-1,4.79a8.77,8.77,0,0,0-.76,3.56q6.38,5.08,13.13,9.69l.24-.37Z"/><path class="network_i--2" d="M356.55,283.53Z"/><path class="network_i--2" d="M62,311.05l1-.77v-1.51L62,308l-1.26-.25s-1,.76-1,1.52,1.51,1.51,1.51,1.51Z"/><path class="network_i--2" d="M380.6,320.6l6,1.46s4.79.23,5.79.23a19.4,19.4,0,0,1,3.78,1l2.27.48-.5-1.46,2-.47a12.25,12.25,0,0,0-3.5-.07c-1.26.26-3.78.51-3.78.51a42.86,42.86,0,0,0-4.51-1,8.46,8.46,0,0,1-2.52-1s-6,.25-6.78-.25-2.27.25-3-1.26-2.76-2.77-1.5-3.26a4,4,0,0,0,1.75-1.26s-1.75-1.51-2.76-2.26-2-3.28-3-5.54,0-3.77-.76-5-3.77-3.26-4.78-5.28-1.5-3.52-1.25-4.27.75-2,1.51-2,2-.75,3.52,1.26,2.51,2.51,2.76,3.77,2.27-.25,3.52-1,4-2.51,4.53-4a6,6,0,0,0-.5-5c-1-1.51-4.52-4.28-4.78-5.78s1.51-4,2.26-4h2.5c-1.27,0,.75,1.26,0,2s-1.78.77-1,1.78,1.51,1.52,2.27,1.26,2-.51,1.78-2a17.63,17.63,0,0,0-.51-2.28s6.83-2.79,8.09-3.29,4.56-1.76,5.82-4.81a45.59,45.59,0,0,1,3.77-6.21c-2,2.48.51-4.72,0-5.93s-2-4.56-2-4.56-1.78-1.26-.76-2.28,3-2,3-2.78-.5-1.27-1.51-1.27-2,.77-2.54-.25,1.27-2.53,1.78-3.29,3.54.51,2.27,0,2-1,3.3,0,2.52,2.28,2.52,2.28a6.21,6.21,0,0,1,1,2.53,19.81,19.81,0,0,0,.25,2.53s.76,2,1.52,2a5.61,5.61,0,0,0,2-.25c.76-.25,1.27-1.52,1.27-1.52l.51-3a22.44,22.44,0,0,1-2.79-3.28,2.46,2.46,0,0,1-.25-1.78s3.54-2,3.79-4.05,2.53-2.78,2.53-2.78a3.94,3.94,0,0,0,2.79.26c1.27-.51,5.31-4.81,7.34-8.36s3-4,3.79-6.58.76-7.84.76-5.31.51-3.29-.25-5.31a5.21,5.21,0,0,0-2.54-2.79l-2.52-.5s-2.28-1.78-.76-4,6.07-5.32,7.08-7.09a7.79,7.79,0,0,1,3.4-2.47A214,214,0,0,0,422,143.29l-1.3-.1-3.27.25a2.38,2.38,0,0,0-.76-1.77l-.76-.5s-1,5.56-2,5.56-2.26-1.77-2.52-2.53a20.51,20.51,0,0,1-.51-5c0-2.27-2-6.56-4-6.56s-3.78-1.52-4.3-.76-.76,2.78-1.76,3.53-2.52,3-5.3.51a18.58,18.58,0,0,0-4.55-3.28l-2.52-.26-2.53-1-2-1-2,.51-1,.25-1.27,1c-1.25,1-2,2.27-3.53,1.92h-1.51c0,.35,7.58-7.46,9.34-8.73a8,8,0,0,0,3-4.8c0-1,.25-4-.76-5a8.54,8.54,0,0,0-3.53-2.28c-1.52-.5-3.29-1-4.29-.5l-3,1.51s.76-2.52.26-3.28a4.65,4.65,0,0,0-1.52-1.26l-.5-1.52s.25-.25-.51-1.26a5.58,5.58,0,0,0-2.53-1.51s-2.27,2.27-3.53,3.78-1.77,2.78-1.51,3.54a6.65,6.65,0,0,1,.25,1.76,18.9,18.9,0,0,1-2.27.26c-.76,0-1.26,1.51-1.26,1.51l-1.77.51a6.23,6.23,0,0,1-1.26-1.77c-.25-.76-.76-1.77-1.08-1.77v-2.34a3.45,3.45,0,0,1-1.45,1.08,8.15,8.15,0,0,0-2,1.51,3,3,0,0,1,.26,1.27,3.83,3.83,0,0,1-.76,1.76L351.76,118a44.65,44.65,0,0,1-4.29,2.78c-1.52.75-3.78,2-4.55,4s-.25,6.06-.25,6.06-7.32.5-8.33,2l-1,1.51s.24,2,.5,3.29,2.27,2.52,2.77,3.28a5.33,5.33,0,0,1,.39,2.52v5.77l-1.26.24-.5-3s.5-2.27-.26-3.27a13.93,13.93,0,0,0-2-2,13.75,13.75,0,0,0-2.77-2.77l-1.26-.75-2,1.26-1.25,1.51-1.52-3.52-1-.26a5.69,5.69,0,0,1,0,3c-.5,1-1.76,2-1.76,2.77a13.83,13.83,0,0,0,.26,4.28,27.45,27.45,0,0,1,0,6.54c0,.75.75,1,1.5,1s1-.25,2,.5a10.36,10.36,0,0,1,1.76,1.77s-2.52-1.26-3.53-.51a3.12,3.12,0,0,0-1,2.26,13.44,13.44,0,0,1-.75,4.54c-.77,1.5-1.52,3.51-3.28,3.51a8.68,8.68,0,0,1-3.78-1.25s2.27-.51,3-.76,2.51-2.76,2.77-4a5.78,5.78,0,0,0,0-3.52,38.49,38.49,0,0,1-.51-9.31c.25-1.26,0-1.26-.5-3s2.27-4.78,1.5-6.29a8.67,8.67,0,0,0-2.77-2.76s.51-1.76-.25-2-1.76.5-1.76.5l-.76,2a2.66,2.66,0,0,0-1.26,1.51,12.36,12.36,0,0,0-.75,3.77,5.52,5.52,0,0,1-2,3.77,2.78,2.78,0,0,0-.76,2.27c0,.75-.5,3,.25,4.28a16.44,16.44,0,0,1,1.26,2.76,14,14,0,0,1,.51,2.52c0,.75-2,.25-2,.25s-2-1.51-3.28-2.51a9.31,9.31,0,0,0-3.53-1.77,15,15,0,0,1-3.27-2l-2.52-1.5-.76.49s0,1.51.76,1.77,1.51.75,1.25,1.76a11.85,11.85,0,0,0,0,3s-2-2-2.51-1.26-2.27.76-2.27.76l-2-.76-.77,1.26-1.51,2L288.63,156s-4,1.26-4.79,2.52-3.78,1.25-4,2.76a4.36,4.36,0,0,1-2,2.52l-1.26-2.52,1.76-2S276.79,157,276,157h-1.77a5.25,5.25,0,0,0-.5,2c0,1,.75,4.78.5,5.78s-2,1-2,1l-1.77.49a23.52,23.52,0,0,0-1.77,4c-.24,1.26-.49,2.27-.49,2.27l-3.28-.25-2-1s-1.51,0-1,.75a3,3,0,0,1,.51,1.51l-.76,1a2,2,0,0,1-2-1.76c-.25-1.76.76-3-.25-4.52s-2.78-4.28-2.78-4.28,7.56,3.52,8.82,3.27,4.54-2.52,4.79-3.27-2-4.28-2.78-4.77-3.77-3-5.79-4.29-2-2.26-3.77-2.26a15.85,15.85,0,0,1-4-.75s-.5-2-.75-2.76-2.52-2.27-2.52-2.27a36.56,36.56,0,0,0-5.8-1c-1.76,0-2.52.5-4,1.75a7.15,7.15,0,0,1-4.54,1.76,8.7,8.7,0,0,0-4.77,3c-.52.76-3.54,1.26-4,2.77a17.4,17.4,0,0,1-2.77,4l2,1,.75.75s-1.51,6-2.77,7-1.76,3.77-2.52,4.27-.76,1.76-1.76,2a10.8,10.8,0,0,0-2.52,1.26l-2.52,2.76s-2.27,1.77-2.52,3-.5,8.8,0,10.57,1,2.76,2.27,3,1.26,0,3-1,3-1.76,3-1.76l1,.25,1.26,2.77s.51,2.26.75,4,2,4.53,3,3.78a2.12,2.12,0,0,0,1-1.51l2.26-1.76a4.69,4.69,0,0,0,1-2.27c0-1-.52-2.77,0-3.52s.5-.26,1.26-1.26,1.51-.75,1.75-2.26.26-2.52-1-3.27-1.26-3.77-1.26-3.77,2.26-4.78,3.78-6.29a29.63,29.63,0,0,0,3-3.77v-2.27l1.76-2.26a5.62,5.62,0,0,1,2.53,1c.75.75-1,4-1,4s-1.51,2-2,2.78-1.51,2.51-1.51,2.51l-.5,2.52s.25.25.25,2,0,3.52.75,4,1.77,1.26,1.77,1.26l2.27.25,2.51-1.51,3.28.51,1.51.75-2.52,1-3.28.5a5.16,5.16,0,0,0-2.26.5,11.92,11.92,0,0,0-1.51,1.26s-1,0-.26,1.26a28.2,28.2,0,0,1,1.51,3l-2,.75-1.51,1.51-.5,3L236.48,204l-.5,1.76s-.75.76-1.76-.25a2.27,2.27,0,0,0-2-.75,13.65,13.65,0,0,1-3.53,2.26,3.55,3.55,0,0,1-2.77-.25s-2.52-1-3-2.77-.25-4.27-.5-5.28-.51-1.77-1.27-1.77-2.26,1.77-2.26,1.77L217.08,201l1,2.77.26,1.51-.51,1s-1,1-1.76,1a30.57,30.57,0,0,0-3.28.51l-.76,3-2,2-2.26,1.27a11.92,11.92,0,0,0-1.26,1.51c-.5.74-.25,1.75-1.51,2.25a5.49,5.49,0,0,1-3,0l-1.51,1-3.27,1.76s1.25,2.52,2,3a15.12,15.12,0,0,1,1.76,1,3.42,3.42,0,0,1,1.51,2.78c.26,1.5.51,4-.75,4.52a15.24,15.24,0,0,1-4,.5s-4.54-.75-5.55-.24a5.13,5.13,0,0,0-1.76,1.75,17.1,17.1,0,0,1,.75,3c0,.76.51,1.51-.24,2.76a17.53,17.53,0,0,0-1.27,4.53,17.93,17.93,0,0,0,4,1c1.27,0,1.27,1,1.27,1l1.51,1.26,1.26-1s2.77-.51,3.27-.51,3.28-3,3.28-3l.5-2.27a45.66,45.66,0,0,1,3.78-4,11.14,11.14,0,0,0,2-2.25l.5-3,2.52,1.76,4-1.76,2.26-.26a66.45,66.45,0,0,0,4.79,5,10.53,10.53,0,0,0,3,1.77,3.12,3.12,0,0,1,2.27,2.51c.26,2-2,3-2,3l-3,.25,1.51,2,2.26.49.76-2.26,2-1.76a7.39,7.39,0,0,0,.5-2c0-.75,1.26-.25,1.26-.25H234v-1.52l-2.19-1.26s-1.95-1.51-2.68-2-.73-.75-1.71-2a5.7,5.7,0,0,0-2.42-1.77v-1.35l1.26-.76a37.93,37.93,0,0,0,4.31,3.79c1,.5,3,1.26,3,1.26l1.27.25,1,3.54,1.28,4,1.26,3.29L241,247l1.27,1.53a6.63,6.63,0,0,0,2.28,1,13.67,13.67,0,0,0,2-.25l.77-1,1.51-.76,2.54-.25,1.52.76,1.27-1.26,3,.24-.26,2,2.54,1,.76-1.5,2.28-.26s1,2.52.51,3.28-4,4.54-4,4.54-6.6-.5-7.61.26-3.81,0-5.32-.76-3.3-2.27-4.57-2.27-3,1.51-4.05,2.27-5.58,1-6.85,0-2.54-1.51-3-2.27-2-2.53-2-2.53l-1.77-.24s-1.53-2.28-2-3a11.92,11.92,0,0,1-1-2.52l-1-.25s-7.86.76-8.62.76-5.07,1-5.07,1-2.79,2.27-4.31,2.53-2.79.75-3.8,0a5.53,5.53,0,0,0-2.79-.76s-1.52,3.28-3.3,4.54-1.27,3-2,4.29-1.52,4.54-2.78,4.8-3.29,2.78-4.57,4.54a32.31,32.31,0,0,0-3.8,8.83,37.33,37.33,0,0,0-.76,10.1c.25,1.77,5.07,8.59,6.09,9.85s5.07,5.3,6.58,6.05a12.43,12.43,0,0,0,5.33.76h6.09s6.08-1.76,7.6-2.27a3.21,3.21,0,0,1,2.79.51L214.6,303a22.5,22.5,0,0,1,3.3.75c1.52.5,1.77,1.26,1.77,2.27a34.9,34.9,0,0,1-.76,4.29,8.71,8.71,0,0,0,2,3c1.53,1.51,3.3,3.79,3.55,4.8s1,3.28,1,3.28l-.25,2L226,326s-.51,3.78-.76,4.54-1.52,4-1.27,5.81,1.77,5.05,2.28,6.31a26.18,26.18,0,0,1,1.52,4.8c.25,1.51-.25,7.32,1.53,8.83s2.28,3.53,3,5.3.26,3.53,1.78,5.3,3.8,2.27,4.57,1.77,3.54-.76,4.81-.76,6.09-2.78,8.36-4.54a11.35,11.35,0,0,0,3.3-4.55A16.6,16.6,0,0,0,258,354a6.17,6.17,0,0,1,2.79-3.28,18,18,0,0,0,1.26-3.53v-8.65s5.79-3.39,6.55-4.85,2-5.82,1.76-6.79-2.52-8-1.51-11.39,4.54-6.55,4.54-6.55l7.8-7.51c1.51-1.46,3.28-3.4,3.52-4.6s2-4.12,2.27-5.09-1.26-1.46-1.26-1.46a10.68,10.68,0,0,0-3.27-.23c-1,.23-6.29-1.47-6.29-1.47s6.54-2.42,8.06-2.91,9.31-3.87,10.06-4.6,2.52-1.94,3-3.15,1.51-3.15,1.51-3.15l1.76-2.43s-2-2.66-3.27-3.15a13,13,0,0,1-2.77-1.69l.75-.73s6.05,1.94,7.3,1.94,2.77-.73,4-.73h3.26l3.54,2.66s2.51,2.67,2.76,3.88c.13.64,1,.95,1.53,1.09a13.45,13.45,0,0,1,2.25-.84s.76,5.33,1.25,6.3,1.52,4.36,2.27,5.58a27.25,27.25,0,0,1,2.77,5.57c.25,1.22.25,1.94,1.27,2.66s1.5.74,2.25,0a24,24,0,0,0,2-2.42l1-1,.5-4.12.51-3.63,5-3.64c1-.73,3.78-2.66,4.79-3.39s3.78-.73,3.78-.73h3.52c.76,0,2,1.22,2,1.22s2,.72,1.75,1.93-.5,2.67-.5,2.67l2,1.45,1.77-1.21,1.25.73a12.6,12.6,0,0,1,1.77,5.33,19.81,19.81,0,0,1-1,5.34,18.81,18.81,0,0,1,2,2.66c.5,1,2.52,4.12,2.52,4.12l.75,2.91s1,2.42.5,1.21-3-2.42-3-2.42l-2.26-2.67-4.29-.73,1.77,2.91-.25,2.18,1.76,1,.51,2.17,1.51,1.7,1.76,2.67,2,.48,5.29,5.09a14.56,14.56,0,0,0,5,3.15A34.56,34.56,0,0,0,380.6,320.6ZM262.4,235.83a8.7,8.7,0,0,0-3-1.52l-2.53-1-1,1-4.29.51-1.76-2.53s.75-1.77,1-2.52,1.77-3.53,2.78-4,1.77-.76,2.27.25.26,1.77.77,2.53-.26,1,1.25,1.26a5.76,5.76,0,0,0,2.78-.25l2.27-.76s0-.76,1.76.76a47.14,47.14,0,0,0,6.07,3.78l.75,1.77s0,1.51-1.26,1.76-1.77,1.52-3.78.26S264.17,237.09,262.4,235.83ZM274,287.32a23.53,23.53,0,0,0-2.53-1.27c-.75-.25-2-1.76-3.28-4s-2-2.53-3-4.3-.24-2-.51-2.77a10.23,10.23,0,0,0-1.76-3.28c-.76-.76-1-2.27-1.25-3.53a18.46,18.46,0,0,0-1.28-3.29l.51-1.51.77.5a6.87,6.87,0,0,1,1.5,2l.76,2.28s1.52.5,3.29,3.78,1,3.53,1,3.53A35.49,35.49,0,0,0,271,279c1.77,2,1.51,3,1.77,5.05a3,3,0,0,0,1.76,2.52l.25,2Zm6.31-58.06c-.51-1,.75-1.51,1.51-2.52a3.55,3.55,0,0,1,2.28-1.27c.74-.25,3.27-1,3.27-1l2,1a5,5,0,0,1-1.77,1.78c-1.26.75-1,.5-1.52,1.26a4.77,4.77,0,0,0-.75,2.52c0,.76,1.26,2.27,2.78,4.29l1.51,2s-.51,2.77-1.51,3-1,0-2.54,0,0,0-.76-.76-1-.75-1-.75-.26-1.52-.5-2.28a1.76,1.76,0,0,1,0-1.26l-.51-1.76-1-2A15.71,15.71,0,0,1,280.33,229.26Zm10.85,38.62a5.55,5.55,0,0,1-3.53,0c-1.52-.51-.76-1.51-2-3.28s-2-1.51-2.51-2.27a4.31,4.31,0,0,1-.51-2l1.77-.76,1.51,1c.76.51.76.76,3.79,3.54s2,1,2.52,1.25a15,15,0,0,1,1.51,1A8.9,8.9,0,0,1,291.18,267.88ZM301.78,230l-1,1.51s-2.27-1-2.52-2.27a1.65,1.65,0,0,1,.51-1.77l1.25-1,3.28,2Z"/><path class="network_i--2" d="M196.78,214.62l-.51,1.52s2-.26,2.78-.26a31.14,31.14,0,0,0,3.28-.5l2-.5,1.51-1c.76-.51,1.52-3,1.52-3a2.68,2.68,0,0,0-.76-2.27,7.57,7.57,0,0,1-1.51-2.27,3.62,3.62,0,0,0-1-2c-.76-.5-2.27-3.28-2.27-3.28l-1-.25a5.49,5.49,0,0,0,.76-2.27c0-1,.5-2.27-.26-2.78s-1.77-1-1.77-1l1-1.51.76-2.17h-1.26l-.76,1.15L196,193.41l-.5,1.59h-2.28c0-.57-.25.19-.25.95a5.51,5.51,0,0,0,.76,2,6.55,6.55,0,0,1,0,2.28,8,8,0,0,1-1.52,2,3.56,3.56,0,0,0-2.27,1.52c-.76,1.26-2.52,1.76-2,3a3.35,3.35,0,0,1,.06,3v2.26c.45,0,.45.51,1.71,1s4-1.52,4-1.52,1.52-4,1.77-4.79.25-1.27,1-1.52a6.65,6.65,0,0,1,1.76-.25s1,0,1,.76a7.67,7.67,0,0,1-.76,2.27l-1,1.26.25,1.52-.25,1.25Z"/><path class="network_i--2" d="M121.06,223.46c0-.29,0-.21-.06,0S121.06,223.65,121.06,223.46Z"/><path class="network_i--2" d="M99.77,168.36a8,8,0,0,0,2.28,2.52l1.27.75,1.26-1.26a9.69,9.69,0,0,1,2-2.26c1.27-1,0-4.55-1.27-5.3a32.24,32.24,0,0,1-3.8-3.29L100,158.26l-2.53-2,.51-1,.25-1.52s-1.77-1-1-1.51,0-3,0-3L94.7,146.4l-1.52-.5a8.09,8.09,0,0,1-1.52-1.53,14.34,14.34,0,0,0-2-2s-1-.51-1.78-1l-.76-.5-1.26-1.77-1.27-1a3,3,0,0,1-1.52-2.28l-1.52-3-3-1.26s-.25-.25-1.26,0-2.79.51-2.79.51l-2.28-.51-1,.26a2.61,2.61,0,0,0-1.51-.76h-3s-2.29,2.52-3,3.28A3.84,3.84,0,0,0,62,137.06a40,40,0,0,1-.76,6.06c-.26.75.76,1.76.76,1.76l.5,1.77s0,.51,1.52,2.27a4.42,4.42,0,0,0,3,1.77s3.8-.26,5.07.5a6.16,6.16,0,0,1,2,2.52l1.52-1.25,1.53-.26L79,152v-1.19l.91-.76,1,1.52L80,153v2.53l.17-1.77c1.11.37,3.19,1,4.2,1.21H82.43l.26,1.06a4.31,4.31,0,0,1,1.26.26c.76.25,1.77.25,2.27,1,.37.57.47.67.5.68H85.45l-1.25.24s-2-.74-2.26.51a13,13,0,0,0,0,3.25H84.2l.51-.64,1-1.36h2c0,.36.51-.15.76.86s1.27,1.76,0,3a12.12,12.12,0,0,0-2,2.78l-.26,2s1.51.5-1.77,1-3.78.5-3.78,1.5.25,3.28.25,3.28l-.75,2,2.52,1-.26-2.28a8.09,8.09,0,0,1,2.78-1c1,0,2.27,1.26,2.27,1.26s2.78,3.78,5.31,5.05a17.19,17.19,0,0,0,4.54,1.51c.76.25,2.77,1,2.67,1V180.8l-.5-1.22-.4-.8,2,1.51,1.76-4s-.76-3.79-2.27-4.8S98,167.17,98,167.17v-.32Z"/><path class="network_i--2" d="M181.88,68.22s-1.51-1.26-2.77-.75-.76-.26-2.52,2l-1.77,2.28-2.27.25-1.27-2.27-.75.5-.25,1.27s-1.27.75-1.52,1.51a3.73,3.73,0,0,1-.73,1.07c.37-2,1-5.34,1-5.87A2.42,2.42,0,0,0,167.75,66c-1-.5-2.27-1-2.27-.25s-1.26,1.77-1.51,2.52.5,1-1,1.52S163,67,163,67h-6a3.78,3.78,0,0,0-3,0,30,30,0,0,1-3,1.52,3.27,3.27,0,0,1,.76-1.77,6.08,6.08,0,0,1,4-1.71h4.29l2.78.2a10.44,10.44,0,0,1,2.78-1.77,6.43,6.43,0,0,0,3.28-2.53c.51-1,1.26-1.51-.25-3s-1.77-1.26-3.28-2.52a11.29,11.29,0,0,1-2.53-3.53s-1.26-1.26-1.51-.51a2.79,2.79,0,0,1-1,1.26l-3-.5a.56.56,0,0,0-.42-.58l3.45-.93,1.76-.76a1.33,1.33,0,0,0-1-1.26c-1-.26-.76.75-2.27-.51a8.45,8.45,0,0,0-2.28-1.51l-3.28-1-3-.51-3,.51a2.63,2.63,0,0,0-2.52.5,17.94,17.94,0,0,1-2.78,1.77,1.71,1.71,0,0,1-1,1L140,49a10.4,10.4,0,0,1-2.27.51,10.33,10.33,0,0,0-2.53.75s-.5-.5-1,.26l-.5.75s1.51.51-1.27,1l-2.77.51-1,.5-.26,1.26.51.76a14.74,14.74,0,0,1,1,1.26l.76,1,.75,1.26a7.42,7.42,0,0,1,.76,1c.51.76.84.76.84.76v1l-.84,1-.76,1,.6,1.26v.76l-1.1.51-2-1.27a20.24,20.24,0,0,0-1-1.76c-.5-.76-1.52-2-1.52-2l-.25-.75-1-.4h-2l-.5.9a.85.85,0,0,0-.57,1v.76c-.19,0-.44-.31-.54-.35s0,.23.61,1.36L123.33,66l-2-2.52L120.05,62h-1.27l-1.26,1h-.76l-2.52.68a4,4,0,0,0-2.52,0,11,11,0,0,1-2.27.76l-.51,1-.25.76-1.26.75-1,1-.26,1a1.94,1.94,0,0,1,.26,1.51l-.26.76-.16,1v1l-.85.51-.75.75-1.52,1.52a7.46,7.46,0,0,0-1.76,2c-1.27,1.77-1.52,2.52-3,3.78s-1,1.26-.76,2.28.25,1.51,1,2a6.64,6.64,0,0,0,1.76.75s1,0,1,1.52.5,3-.26,3.78,0,1-2,1.52a12.57,12.57,0,0,0-3.53,1.51,6.21,6.21,0,0,1-3,2.78,11,11,0,0,0-3.53,2.27s.25.76.75,2.52,0,.26,1.27,2,4.29,2.27,4,3a8,8,0,0,1-1.51,2s-1.77-1-1.77,0a18.84,18.84,0,0,0,.26,2.52,8.23,8.23,0,0,1,.75,1,22.65,22.65,0,0,0,2.53,3.29c1,1,1.51,1.51,2.27,1.26a10.76,10.76,0,0,1,3-.76,26.63,26.63,0,0,0,2.78-.25,2.35,2.35,0,0,1,1.51,0c1,.25.75,1,2.27,1.52s4.54,2,5,4,1.26,3,1.52,6.06,1,3.53,1.26,4.79,2,4,1.51,6.31-1,3-.25,3.54a6.5,6.5,0,0,0,1.51.75s3,0,3.54,1.27l.5,1.26-3.28.51a7.64,7.64,0,0,1-.51,2.77c-.5,1-.5,2.78.51,3.28s1.51,1.26,2.27.51,1.52-2.28,2-1-1.51,3.53-1.51,3.53a5.41,5.41,0,0,0-1.52,3.28,34.33,34.33,0,0,0,.51,7.08,12.68,12.68,0,0,0,1.26,3.78,39.34,39.34,0,0,1,1.76,5s0,2.78,1.27,4.3a23.17,23.17,0,0,1,3.28,4.79l1,2a1.94,1.94,0,0,1,2,.25c1.26.76,2.27,1.77,3.28,2.27s1.26,1,1.77-.5,1.26-.76,1.51-3.78.51-4.8.51-4.8a4.48,4.48,0,0,0,1.76-2.27c.25-1.26,1-3.54,1.26-4.55s0-2,1.26-2.77a8.88,8.88,0,0,1,2.53-1l2-.25,4.54-4.55c1-1,2.78-5.8,2.78-5.8s7.57-.76,8.83-2,5.05-5,5.05-5l.76-1.52-3-1.25-.76-1.77s-.5-1.27.25-1a6.23,6.23,0,0,1,1.77,1.26l1.52.5,1.26.25a34.89,34.89,0,0,0,.25-3.53,15.33,15.33,0,0,0-.76-3.78l-.5-1.27s2.53-.25,2.53-1a5,5,0,0,0-.51-1.77l-3-3.29s2.27,1,3.54,0a3.5,3.5,0,0,0,1.25-2.52l.26-2.53,2-1.25s-1.52-1.52-1.26-2.28l.24-.75,3.45.75v-3l-2.18-.49s-.76-.26-1.27-2l-.5-1.76,1.52-1.77s2-5.81,1-6.82a4.82,4.82,0,0,0-2-1.26l-.5-2.27L175,102.8v-2.52l.07-1.52.76-1.76s-.51-2-.76-1-1.52-2.27-1.07-2.27V90.44l.06-1,1.52-1a2.88,2.88,0,0,0,.25-2.78c-.76-1.27,1.26-1.27,1.26-1.27l1.51-1.76-1-2.27s3.29-.5,3.29-1.77a20.19,20.19,0,0,1,.25-2.77,23.62,23.62,0,0,0,3.28-4C185.17,70.24,181.88,68.22,181.88,68.22Z"/><path class="network_i--2" d="M100.82,72h0S100.84,72,100.82,72Z"/><path class="network_i--2" d="M30.13,156.2c1.27-1.35.76-1.89,2.54-1.62a9.25,9.25,0,0,0,2.79,0,18.87,18.87,0,0,1,5.08.54c1.78.54,1.27,1.62,1.78.54a25.74,25.74,0,0,1,1.27-2.43,15.09,15.09,0,0,0,1.27-3,7.4,7.4,0,0,0,.35-1.15c1.06.11-.13-.63-.13-.63a1.73,1.73,0,0,1,0,.22c-.3-.07-.7-.17-1.22-.32-3.55-1.09-3.81-1.9-3.81-1.9l-.76-3A47.27,47.27,0,0,1,38,138.41v-3.23l.76-2.69s-.5-1.89-1.26-2.17a8.07,8.07,0,0,0-2-.26l-1.52,1.34s1.52,1.35.76,1.35a9.9,9.9,0,0,0-2.28.54l.25,4.31s-1.27-1.08-2-1.88l-.76-.82-2.29,2.16s.26-1.07-1.27-1.61a9.09,9.09,0,0,0-2.79-.55L23.27,133a1.4,1.4,0,0,0-.78-.57q-3,6.84-5.61,13.92c.22.39.85,1.4,1.49,1.61s2.11.51,2.11.51a5.55,5.55,0,0,1,2.1-.51c1.06,0,.53-.51,2.11.25l1.58.76a5.37,5.37,0,0,1-2.9,1H17.43s-2.79.27.51,1.89.76,1.34.76,1.34l3.81.54.76.81L25.81,157h3.3S28.86,157.54,30.13,156.2Z"/><path class="network_i--2" d="M177,175a2.6,2.6,0,0,1,2.25-1c.75,0,1-.49,2-1.22a4.24,4.24,0,0,0,1.25-2.44s-.75-1.46-1.25-2.68-.25-1.46-.25-1.46l-1.75-1.47-1.5.5-1.25.24-1.25.48H171.5l-1.49-.48a3.27,3.27,0,0,0-1.51-.49,1.46,1.46,0,0,0-1,.25l-.5,1-1,1.7v1.22l.75.25,1.25.73-.25.73-.75.24-.5,1,.75.5.75.72V176h3c1.25,0,1.51.49,1.51.49l2,1L176,176Z"/><path class="network_i--2" d="M52.17,84.51l-.51,2-.76.26,2.55,3.57,1.27,2.55-.51.76.26,2.3L56,98.8v1.08l2.56,2a9.39,9.39,0,0,0,1.8.25,5.73,5.73,0,0,0,2-.76l2-.25L67,102.92l.25,1.25-2,.26L64,105.94l1.28,2.77-.77,1s-1.54,1-2.57,1.51a4.65,4.65,0,0,1-2.81.51c-1.54,0-1.8-.25-1.8-.25l-4.61-1.77c-1.29-.5-1.8-.25-1.8-.25L49.59,111s1.54,2.28,2,3.28a46.92,46.92,0,0,1,1.54,5l-1.8-1a4.13,4.13,0,0,1-1.28-1.52c-.26-.75-1-1.76-1-2.52s-1-1.51-1-1.51L46.26,112H44.72a9.71,9.71,0,0,1-2.06,1.52,1.55,1.55,0,0,0-1,1.26l-1.54-1.26a1.77,1.77,0,0,0-1-1c-.78-.24-1.55,1-1.55,1s1,2.77,1.8,4.29,3.59,3,3.59,3a30.49,30.49,0,0,0,1.54,3.28c.51.75,3.33-.51,3.33-.51l1.54-2,1,.51a7.86,7.86,0,0,0,.26,1.77c.26,1,.52.75,1.29,1.76s1.53.76,2.56,1,1.28,0,2-1.77-1.54-5-1.54-5.8a21.23,21.23,0,0,0-.77-3.28,6.28,6.28,0,0,1,2,.5c1.29.5,1.29,3,1.29,4.3s-.26,2-.26,3,2.31,2.53,3.08,2.78a33.59,33.59,0,0,0,3.33.75c1.28.25,1.8.76,3.08.76a15.31,15.31,0,0,1,2.56.25l2.56-1.51s1.8.5,2.57.75,2.31-1,3.08-1.25.77-1.77.77-1.77a2.57,2.57,0,0,0-.52-2c-.77-1.26,0,0-.51-1.26s-.26-.76-1-1.52-1-.5-1.8-.75a4.31,4.31,0,0,0-1.79-.26,13.43,13.43,0,0,0-2.82.51c-1,.25-1.29.76-2.31,1.26a3.57,3.57,0,0,1-2.82,0c-.77-.25-2.83-2.27-2.83-3.54s.52-1.26.52-1.26,2.31-.25,3.33-.25,2.56.25,3.33.25a3.08,3.08,0,0,1,1.29.26l3.07-.51a5.19,5.19,0,0,1,1.8-.5,1.14,1.14,0,0,1,1,.75,5,5,0,0,1,1.53,2.53c.52,1.77,0,0,1.29-.76s.25-2.52.25-2.52.77.25,1.54-1-.51-2.27-1-3-1.54-2-1.54-2a7.26,7.26,0,0,0,2.56-1.5c1.54-1.27-.51-3-.51-3a30.67,30.67,0,0,0,4.1-1c1.28-.5.26-1.77.26-1.77L86,98.63V98l0-2-.5-.76-.47-1V92l1.22-1.77,1.51-.5,1,.25c1,.25,1-.25,1-.25L91,87.92l.25-1.77A16.54,16.54,0,0,0,94,83.62a34.57,34.57,0,0,0,2.79-5.3c.75-1.52,2.77-3.53,3-4.29a10.81,10.81,0,0,1,1-2h-.72a8.33,8.33,0,0,0-2.52,0l-.75-1s4.54-1.26,5.29-1.52,1.52-1.76,3-3.27,1.52-1.77,1.77-2.53a6.92,6.92,0,0,0,0-2.27,1.09,1.09,0,0,0-.5-1l-1.52-.25-.76-2.53-.5-1.51-2.52-1.26-2.78.25a3.74,3.74,0,0,1-2-1,4.66,4.66,0,0,0-2.52-1,22.17,22.17,0,0,0-2.53-.51L88.49,53H85.21l-2,.08-.53.2A217,217,0,0,0,60.73,74.11l-.14,1,1.53,3.82a15.61,15.61,0,0,0,2.55,1.53,1.72,1.72,0,0,0,1.27,0l2.29.51,1,.51s2.55,0,3.31-.51a7.94,7.94,0,0,1,2-1c.77-.25,2.81-2.55,2.81-2.55l.51-1,1-2-.23,2.76L79,78.9l-1.53,1-2.3,1-.51.77a3.92,3.92,0,0,1-1.79.77.74.74,0,0,0-.76.76l-1,1L69.26,84H66.45a14.7,14.7,0,0,1-1.78-.76,6.76,6.76,0,0,1-2-1.79c-.77-.76-1.79-2-1.79-2s-.22-1-.44-2c-.11-.51-.23-1-.32-1.37a1.93,1.93,0,0,0-.5-.74q-3.87,4.31-7.52,8.81Z"/><path class="network_i--2" d="M40,123.51c.76-.5,0-1.51,0-1.51H38l-1.26,2,1,.75A25.58,25.58,0,0,0,40,123.51Z"/><path class="network_i--2" d="M203.59,186.1c0-1.51-.76-1.77-.76-1.77l-1,2-1.27,1.26.51,1,1.76.5A7.85,7.85,0,0,0,203.59,186.1Z"/><path class="network_i--2" d="M194,184.84s.76-2.53,1-3.54a1,1,0,0,0-.75-1.26l-1.77,1s.5.25,1,2Z"/><polygon class="network_i--2" points="292.95 314.83 292.45 315.84 293.45 317.1 294.46 315.58 292.95 314.83"/><polygon class="network_i--2" points="295.98 325.18 295.22 326.19 296.74 327.2 297.5 325.93 295.98 325.18"/><polygon class="network_i--2" points="322.77 304.23 323.27 302.21 321 302.46 321 304.73 322.52 306 322.77 304.23"/><polygon class="network_i--2" points="291.18 317.86 289.42 318.37 289.92 319.37 291.68 319.12 291.18 317.86"/><path class="network_i--2" d="M318,275.57c-.08.08-.05.13.24.13C318.78,275.7,318.48,275.7,318,275.57Z"/><path class="network_i--2" d="M280.58,324.16l-1.26-1.51s-1.52,1-.76,2S280.58,324.16,280.58,324.16Z"/><path class="network_i--2" d="M402.47,335.1c-2.27,1.51-3,1-3,1.77s.5,1.77-1,2.77-2,2.52-5.05,2.78-5.55,1-6.31,3.28-2,5-.76,8.08c.41,1,.8,1.82,1.17,2.62A215.18,215.18,0,0,0,403,334.7Z"/><path class="network_i--2" d="M274,346.88c.5,1.52.25,2.53.75,3.54a2.24,2.24,0,0,0,2.53,1.51,6.33,6.33,0,0,0,3.78-2.52c.76-1.26,2-3.54,2-5.05a14.42,14.42,0,0,1,1.26-6.05c1-2,1.76-4,1.51-5.31a32,32,0,0,1-.26-4.29l-1.5-1.51s-2.28,2.77-3,4-1.26,3.27-2.52,3.78-2.52.76-2.78,1.52.51,4,0,5.55S273.51,345.37,274,346.88Z"/><polygon class="network_i--2" points="322.74 298.17 320.97 297.41 320.72 299.69 322.23 300.19 322.74 298.17"/><path class="network_i--2" d="M358,110.63v.18C358.07,110.7,358.09,110.63,358,110.63Z"/><polygon class="network_i--2" points="377 108.86 375.74 107.09 373.47 108.1 375.99 109.62 377 108.86"/><path class="network_i--2" d="M401,321.57l-1,.25c.35,0,.7.09,1,.15Z"/><path class="network_i--2" d="M334.34,300.44c.76-.25,2.27-1.26,2-2.52a10.3,10.3,0,0,0-1.52-3l-1.76-1.77-1.26,1.27a18.85,18.85,0,0,1,.76,3.78C332.58,299.43,333.58,300.7,334.34,300.44Z"/><path class="network_i--2" d="M405.27,325.53a11.13,11.13,0,0,1,2.51-.26l.76-.5.86-.86c.53-1,1.05-1.94,1.56-2.91h-4.43a6.78,6.78,0,0,0-2,.75c-.76.51-1.77.51-3.28.26l-.24,0V326A37.58,37.58,0,0,0,405.27,325.53Z"/><polygon class="network_i--2" points="321.22 311 322 311 322 308 320.97 308 321.22 311"/><path class="network_i--2" d="M319.7,288.58a1.74,1.74,0,0,0,0,2,7.15,7.15,0,0,1,1,1.77l1.26.5,1.25-.76L322,290.35Z"/><polygon class="network_i--2" points="51.64 105.83 51.39 107.6 54.67 108.1 55.94 107.09 55.68 105.58 52.9 105.08 51.64 105.83"/><path class="network_i--2" d="M49.37,142.43l1.77-1s.5-3.28,0-4.54-.25-3.54-.25-4.29a2,2,0,0,0-1-2,4.22,4.22,0,0,0-2.27-.76l-3.54,2-.51,1.51s2,1.77,1,2.53a1.72,1.72,0,0,1-2,0l-.75.25-.25,2a43,43,0,0,1,3.53,3.53,21.62,21.62,0,0,1,2.53,3.8Z"/><polygon class="network_i--2" points="307 70.27 307 68.76 306.25 68 305.49 68 303.97 68.25 303.72 69.01 304.22 69.77 307 70.27"/><polygon class="network_i--2" points="249.79 96.77 252.56 96.01 251.05 95 249.03 95 249.79 96.77"/><path class="network_i--2" d="M243.73,105.83s1,0,.5-.75l-1-1.52-1-.5.26-1.52-1.47-1v-1l-.8-1L240,98V96.83a1.77,1.77,0,0,0-1.1-1.51l-1.1-.51-.28-1.26-.83-.5-.83-.77-.55-1-1.38-1.52L232,88.25v-.76L230.61,86l-.83.5-1.1,2-1.39-.25L225.64,88h-1.1l-1.76-.08-1,.5s.26.25,0,1,.76.75.76,1.51-.25,3-.25,3,1.77-.76.25.76L221,96.24l2,2.52v1l1,1,1,1-.05,1v2.74l.77,1s.26-.26.26.77,0,1,1,2.56l1,1.54,2.81,2.31,1-3.85,1.53-2.05s.52.25.52-.77a9.63,9.63,0,0,0-.26-2l.52-1.54.76-1.27v-.68l1-1v-.75l1.67,1.51.5,1,.51,1.76-.25,1a2.54,2.54,0,0,1-.51,1.26l-.5.75,1.76.26a.79.79,0,0,1,1,.5c.24.76-.52-.5.24.76l.76,1.26.76-1s-.76.5,0-.76A13,13,0,0,1,243.73,105.83Z"/><path class="network_i--2" d="M297.74,77.06s.12.27.21.49C297.9,77.43,297.84,77.27,297.74,77.06Z"/><path class="network_i--2" d="M295.77,132.86l.51-.75.5-.76,1-1.52.24-2.27.25-.75,1.27-.25s.5,0,1-.76,1.26-1.76,1.26-1.76a19.27,19.27,0,0,1,2.27-2.28l.76-.5s1-1.77,2-1.77a6,6,0,0,0,1.77-.26l3-2.77,3-1.51.51-1,.5-1.77-2.77-2.28s0,.76-1.27,1.77a11.54,11.54,0,0,1-2.27,1.52c-1.26.76-.25,1-3,1.51s-3.79.76-3.79.76l-4.29,1.77s.51-1-.49.76,0,3.53-1.77,3.78a28.12,28.12,0,0,0-2.78.51l-.25,1.51v3a17.51,17.51,0,0,0-1,1.76,21.46,21.46,0,0,0-1,2.78,2.46,2.46,0,0,1-.24,1.77c-.51,1-.51,0-1.27,1.26L288,136.9a15.8,15.8,0,0,0-.76,3.29,4,4,0,0,0,1.27,2.77,5.42,5.42,0,0,1,1.26,2.27l.25.76a8,8,0,0,0,2.78,1h2.52a1.12,1.12,0,0,0,1-.75s.5-.51-.25-1.26l-.76-.76-1.27-2-.75-2.78,1-2.27s-.26.25.5-1.26A12,12,0,0,0,295.77,132.86Z"/><path class="network_i--2" d="M246,91.19l1.51-2,.5-1V86.9l.76-1.76a10.3,10.3,0,0,0-2.52-.5c-1,0-3.79-1.53-3.79-1.53l-1-.76-1-.75-1,1-1,.26-1-1-1.27-.5-1.26.25-1.26.51-.25,1.26.25.76-.25.75s-.51,0-.26,1-.5,0,.26,1l.75,1,1,.75,1.52.51-.26,1.26a2,2,0,0,0,1.26,1.76s.26-.25,1.52,0a16.78,16.78,0,0,0,2.77.25l1.52.51,1-.25Z"/><path class="network_i--2" d="M281.84,154.55c0,.76,1.27,1.26,1.27,1.26l1-1-.26-1.26-1.77-.51A5.59,5.59,0,0,0,281.84,154.55Z"/><path class="network_i--2" d="M287.39,84.13l.77.24,1.26.63H294v.14l1,.75,1.77-.25.24.76.26.76.75.25,1.27-.25.5-.76.51-1-.51-.75-1-1.27-.77-.5-.49-.76.24-.76.25-.76.77.25,1,.76c1.26.51,1.26.4,1.26.4h.76l1-.65,1-1,1-.25,1.26-.25.76-.51.76-.76.76-.5.25-.76.4-2v-.86l-.26-1L308,73h-1.31l-1.06,1.19-1.05,1s-1,.48-.79,1.2l.26.71v1h-.71l-.5-1.2-1.51-.25-.76.51-1.76,1s-.51,1-.77,0l-.25-1L297,75.29l.52-.76.75-.5.25-1.51-.76-1.27-.24-.76,1-2-.51-1-2,.75v1l0,1-.51.76-1.51.51-1.26,1.25.3,1.52V76h-.55l-.77-1.21-.24-.79h-1l.5.79c-.5,2-.5,1-.93,2v1l.67,1,1.78,1.26.75.25,1,.25.77,1-1.27.75-1.51-.5-1.52-1-1,.51-.76.76-.75.24s0,.52-.77,0l-.75-.5a13,13,0,0,0-.25-2.27c-.26-1.26-.39-1.26-.39-1.26V76.8l-.38-1-.76.5c-1.26,1-.24.76-1.26,1s.26.26-1,.69h-1.26l-2.78.07-1.77.25-1,1-1,1.26.51,1,1.26.51,1.77.24s1,.26,1.26,1a13.64,13.64,0,0,0,1,2l2.27,1.26,1.27.76,2.88.51V86.65l-1.88-2.52,1.52-.26Z"/><path class="network_i--2" d="M298,77.55c.21.48.13.28,0,0Z"/><path class="network_i--2" d="M399.18,260.93c.09-.11.17-.21.28-.37C400.61,259,400.15,259.55,399.18,260.93Z"/><polygon class="network_i--2" points="412.85 308.01 412.59 308.77 411.84 310.28 412.34 313.82 412 314.83 412 315.58 412.85 315.84 413.85 313.06 414 312.31 414 310.79 413.6 309.53 414.61 308.52 412.85 308.01"/><path class="network_i--2" d="M411,263.59c.76-1-.5-2-.5-2L408,264.85v1l1.52-.51A18.5,18.5,0,0,0,411,263.59Z"/><path class="network_i--2" d="M434.05,229c-2.52-1.26-2-4.3-2-4.3l1.77-.75-.5-3.28.25-2.27,1.77-1.26a7.05,7.05,0,0,0-.76-3.79c-1-2-.5-2.27-1-4.79a15.84,15.84,0,0,0-.76-3l-1,1.27-1,1.26.26,4.8a12.28,12.28,0,0,1,.25,3.79c-.25,1.5-.76,6.56-.76,6.56l-.5,1.26.25,3.79L429,231.79l-1.27,1.51-1.76,1,1,2.27.51,2.78-1.51,4-1.76,2.27-4,1-2.52.25s-2,1.52-2.78,1.52-1.76,1.26-2.27,2a11.61,11.61,0,0,0-1,2.27s-.26,2.52,1,3.78,1.26,0,1.26,0l4-3.53,1.76-.5s1.51.75,2,0,3.28-2.28,3.28-2.28l2.28.51.24-1.51,2.28-1.27s.75-4.54.75-5.56.25-.75,2-3.52-1-.76-2-1,.76-3.79.76-3.79.75.76,1.51-.26c.5-.66,1.33-.78,2.83-1q.11-1.76.18-3.51A3.45,3.45,0,0,1,434.05,229Z"/><path class="network_i--2" d="M397.19,269.15c-.75,1.51-1.76,1-.75,2.52s2,2,2.27.75,1.77-1.51,1.51-2.77a2.3,2.3,0,0,1,.51-2l-2.52-.51Z"/><path class="network_i--2" d="M415.26,312.45c.32-.69.65-1.38,1-2.07l-1.63.23S414.87,311.45,415.26,312.45Z"/><path class="network_i--2" d="M410,309l1-.76v-1l-.68-1-1-2s-1.26,2.27-1.52,3a14.32,14.32,0,0,0-.24,2.78l-1,1.52L405,314.32l.25,1s0,1.27,1,1.27.25,2,1,0,.76-1.6.76-1.6h1.26l1.51-.92-.82-1.77V309Z"/><path class="network_i--2" d="M400,308.26c.76.26,3.78.76,4,0s1-2.26,1-2.26,1.51-3.54,1-5.56.25-2,.25-2l1.51-.75-.24-1.26.5-1.52-.76-.75-.25-1-.76-1.77-1-1.77.25-1.25-1-1.52-2-1-2.77-1L401,283v-2.41s-2.64-1.45-3.12,0a10.71,10.71,0,0,1-1.68,2.87,9.37,9.37,0,0,0,.23,1.92c.25,1,.73,2.4.73,2.4L396,290.22a35.34,35.34,0,0,1-3.11,4.32c-1.68,1.92-1.68,3.12-1.68,3.12a4.7,4.7,0,0,1-1.69,2.4c-1.44,1.2-2.64,3.36-4.56,3.84a9.54,9.54,0,0,0-2.64,1,5.94,5.94,0,0,0-2.16-1.68,2.25,2.25,0,0,0-1.68.24s.24,1.2.47,2.17a19.34,19.34,0,0,0,1.68,4.07c.73,1.21,1.93,1.93,1.93,2.65s.49,1,1.2,1,1-.72,2.17,0a12.5,12.5,0,0,0,3.59,1.2,4.46,4.46,0,0,0,1.92,0l1.45,1.44,1-1.68s-1.93-.48-1.93-1.44,0-3.84,1.44-4.8a4,4,0,0,0,1.69-2.4s-1.2-1.92-1-3.13,2.16-1,2.16-1,1.44-1,2.4-1.68,2.16-1.68,2.16-1.68.72-.72,1.2,0,2.4,1.44,2.4,2.4,1.44,1.2,0,3.36a6.1,6.1,0,0,1-5.28,2.41c-.72-.25-1.68.47-1.68.47L395,309.9v2.15l.43,1.78.57,2v1.26l.94,1.9h1l-.5-2.15.25-1.52,1.3.51v1l1.73,1.26,1.76.5.76-1.26-.76-1-1-.5s1-1.26.24-1.76-.5-.76-1.25-1.52-.76-1.77-1.52-2-.75-1.26-.75-1.26S399.21,308,400,308.26Z"/><polygon class="network_i--2" points="253.57 85.89 255.09 86.4 257.1 86.65 258.87 85.14 257.86 84.13 254.58 85.39 253.57 85.89"/><path class="network_i--2" d="M29.94,118.46l.25,1.76-1.91.21q-1.89,3.63-3.63,7.32a3.23,3.23,0,0,0,.49,0c1.26,0,2.78.5,3-.25a7.08,7.08,0,0,1,.76-1.51s1.76-.26,2.52-.26,1.51-.25,2.27-.25,2.78-2.27,2.78-2.27L37,121v-2l-2.52-2.26L33,115.93l-.5-1.26L32,113.58c-.78,1.39-1.56,2.79-2.32,4.2Z"/><path class="network_i--2" d="M89,279.49l2.27.76s1-.25,1.77-.5a13.17,13.17,0,0,1,2.77-.26l-.24-.75-.77-.51-1-.76-4.3-1s.76.25-.25,1.52S89,279.49,89,279.49Z"/><path class="network_i--2" d="M102,219.28c.19,0,.26-.13.08-.37S101.88,218.8,102,219.28Z"/><path class="network_i--2" d="M36.75,111h2.77l-.5-2.27a7.94,7.94,0,0,0-1.92-3.66l-1.05,1.67c0,.54-.06,1.08-.06,1.49A7.5,7.5,0,0,0,36.75,111Z"/><path class="network_i--2" d="M108.88,287.48s0-4.49-1.25-6.24a7.29,7.29,0,0,0-2.25-2.24l-1.5-1H98.65l.25.75L98.15,280h5.24a10.62,10.62,0,0,1,2.24,1.49,5.34,5.34,0,0,1,2,3c.25,1.49-.75,4.49-.75,4.49Z"/><polygon class="network_i--2" points="61.74 108.86 61.99 107.6 60.48 106.09 59.47 107.35 58.96 108.36 59.97 109.62 61.74 108.86"/><path class="network_i--2" d="M52.79,98.51l-2-1.51H49v4.29c0,1.26-.25,1.51.51,2.27s.25,1.51,2.27,1a3.1,3.1,0,0,0,2.27-2.52,3.81,3.81,0,0,0,0-1.77A6.23,6.23,0,0,0,52.79,98.51Z"/><path class="network_i--2" d="M40.27,102.47l1.27-.26,1,.51.25,1-1.26,1,.75,1.26h1.27l3.78-2-.5-2.77-1.26-1.77-.51-1.77-1-1.51-.8-.35c-1.38,2-2.72,4-4,6Z"/><path class="network_i--2" d="M48.24,90.54A5.33,5.33,0,0,0,49,89.28V88l-1.53,2Z"/><path class="network_i--2" d="M354.77,93.15s.76,1.27,1.51,2.28,0,0,1,.5a2.73,2.73,0,0,1,1.25,1l2.54,1a2.87,2.87,0,0,0,2-1.26c1-1.26.76-3.28,1-4.29a21.76,21.76,0,0,0,0-4c0-.76-.51-.76-.51-.76l-1.51-.75a8.43,8.43,0,0,1-1.77-3.79c-.25-2,.51-2.52.51-2.52a18,18,0,0,0-2.28-2.28c-1-.76-1.52-3.53-1.52-3.53L355.79,76l-1.28,1H353v1.26l-.26,2.28-.75,1-1,1.76.49.76s.26,1.77-.49,2a4.75,4.75,0,0,0-1.52,1l.25,1.51a3.2,3.2,0,0,0,1.76,2c1.52.76.77.26.77.26l1.51,1Z"/><polygon class="network_i--2" points="331.06 80.34 332.57 79.33 330.56 78.07 329.55 79.08 331.06 80.34"/><polygon class="network_i--2" points="375.23 103.77 377 103.52 375.74 102 373.97 102 375.23 103.77"/><path class="network_i--2" d="M371.48,95.43c-1.77-1.51-3.28-3-3.28-3l-1.26-1-.76,1.51a2.76,2.76,0,0,0-1,1.26,7.44,7.44,0,0,0-1,2.78,4.65,4.65,0,0,1-.5,2.27c-.51,1.26-1.26,3.28-1.26,3.28l1,1,1.78-1.51h4.53a2.35,2.35,0,0,0,1.52-.76,4.31,4.31,0,0,0,1-1.52L373,99V98l-1-1.52S373.25,97,371.48,95.43Z"/><polygon class="network_i--2" points="349.49 74.28 348.48 75.29 349.74 76.8 351 75.8 349.49 74.28"/><path class="network_i--2" d="M63.65,278Z"/><path class="network_i--2" d="M82.94,272.93a6.11,6.11,0,0,0-2.52-1l-1.27-.25-2-1-1.77-1-1.52-.5-1.26,1.51-.5,1.26,1.26.25,2.77.76s2.78.25,3.79,1.26a5.21,5.21,0,0,0,2.52,1.26l2,1.26,3.28.52L88,276l-1.26-.76a16,16,0,0,0-1.77-.76C84.2,274.19,84.71,273.93,82.94,272.93Z"/><path class="network_i--2" d="M112.73,407l1.26-1.77-2-1-2,.25s-.43,0-1.09.81c1,.61,2,1.21,3,1.8Z"/><path class="network_i--2" d="M63.65,278l-.15,0h0Z"/></g></g></svg>
