<svg xmlns="http://www.w3.org/2000/svg" viewBox="0 0 366 330"><defs><style>.sw_i--1{fill:#cedff1;}.sw_i--1,.sw_i--2,.sw_i--3{stroke:#0860b8;stroke-linejoin:round;stroke-width:6px;}.sw_i--2{fill:#6ba0d4;}.sw_i--3{fill:#0860b8;}</style></defs><title>Software</title><g id="Layer_2" data-name="Layer 2"><g id="Layer_1-2" data-name="Layer 1"><polygon class="sw_i--1" points="327 255 183 327 183 183 327 111 327 255"/><polygon class="sw_i--1" points="183 327 39 255 39 111 183 183 183 327"/><polygon class="sw_i--1" points="3 147 147 219 183 183 39 111 3 147"/><polygon class="sw_i--1" points="363 147 219 219 183 183 327 111 363 147"/><polygon class="sw_i--2" points="3 75 147 3 183 39 39 111 3 75"/><polygon class="sw_i--2" points="363 75 219 3 183 39 327 111 363 75"/><polygon class="sw_i--3" points="183 39 39 111 183 183 327 111 183 39"/></g></g></svg>
