<svg xmlns="http://www.w3.org/2000/svg" viewBox="0 0 271.99 285.79"><defs><style>.update_i--1{fill:none;stroke:#9cbfe3;stroke-miterlimit:10;stroke-width:8px;}.update_i--2{fill:#9cbfe3;}.update_i--3{fill:#0860b8;}</style></defs><title>WindowsUpdate</title><g id="Layer_2" data-name="Layer 2"><g id="Layer_1-2" data-name="Layer 1"><g id="Update_Circles" data-name="Update Circles"><path class="update_i--1" d="M136,274.89A132,132,0,0,1,113.73,12.77"/><polygon class="update_i--2" points="99.84 28.46 111.4 13.15 96.08 1.6 107.48 0 122.8 11.55 111.25 26.86 99.84 28.46"/><path class="update_i--1" d="M136,10.9A132,132,0,0,1,158.26,273"/><polygon class="update_i--2" points="172.15 257.32 160.59 272.64 175.91 284.19 164.51 285.79 149.19 274.24 160.74 258.92 172.15 257.32"/></g><g id="Windows_10_Icon" data-name="Windows 10 Icon"><path class="update_i--3" d="M128.4,82.19q38.86-5.94,77.82-11.3,0,34.13,0,68.24c-25.94.09-51.88.49-77.84.57Q128.37,110.93,128.4,82.19Z"/><path class="update_i--3" d="M62.6,91.37c19.51-3,39.1-5.61,58.69-8.06q0,28.31,0,56.59c-19.58,0-39.15.28-58.73.23Z"/><path class="update_i--3" d="M62.6,146.07c19.56-.07,39.12.24,58.68.21,0,18.92,0,37.84,0,56.75-19.54-2.89-39.11-5.43-58.69-8.07Z"/><path class="update_i--3" d="M128.28,146.89h77.94q0,34,0,68.07c-25.91-3.88-51.86-7.48-77.82-11Q128.36,175.43,128.28,146.89Z"/></g></g></g></svg>
