<svg xmlns="http://www.w3.org/2000/svg" viewBox="0 0 504 360"><defs><style>.ch_i--1{fill:#9cbfe3;}.ch_i--2{fill:#3980c6;}.ch_i--3{fill:#0860b8;}.ch_i--4{fill:#6ba0d4;}</style></defs><title>client-health</title><g id="Layer_2" data-name="Layer 2"><g id="Layer_1-2" data-name="Layer 1"><rect class="ch_i--1" x="171" y="27" width="18" height="63"/><rect class="ch_i--1" x="315" y="27" width="18" height="63"/><rect class="ch_i--2" x="171" y="27" width="18" height="18"/><rect class="ch_i--2" x="315" y="27" width="18" height="18"/><rect class="ch_i--3" x="45" y="63" width="54" height="18"/><rect class="ch_i--3" x="405" y="63" width="54" height="18"/><rect class="ch_i--4" y="72" width="504" height="288"/><polygon class="ch_i--3" points="324 189 279 189 279 144 225 144 225 189 180 189 180 243 225 243 225 288 279 288 279 243 324 243 324 189"/><rect class="ch_i--3" x="153" width="198" height="27"/><path class="ch_i--2" d="M477.29,72C442.63,221.54,308.58,333,148.5,333A336.16,336.16,0,0,1,0,298.64V360H504V72Z"/></g></g></svg>
