<svg xmlns="http://www.w3.org/2000/svg" viewBox="0 0 312 312"><defs><style>.dcom_i--1{fill:#0860b8;}.dcom_i--2{fill:#6ba0d4;}.dcom_i--2,.dcom_i--3{stroke:#0860b8;stroke-miterlimit:10;stroke-width:6px;}.dcom_i--3{fill:#cedff1;}</style></defs><title>DCOM</title><g id="Layer_2" data-name="Layer 2"><g id="Layer_1-2" data-name="Layer 1"><rect class="dcom_i--1" x="147" y="66" width="18" height="180"/><rect class="dcom_i--1" x="147" y="66" width="18" height="180" transform="translate(312) rotate(90)"/><path class="dcom_i--2" d="M309,177V135c-18.08-2.9-24.23-25.83-10-37.39l-21-36.3c-17.11,6.53-33.9-10.26-27.37-27.37l-36.3-21C202.79,27.23,179.86,21.08,177,3H135c-2.9,18.08-25.83,24.23-37.39,10L61.35,34C67.88,51.09,51.09,67.88,34,61.35L13,97.65C27.23,109.21,21.08,132.14,3,135V177c18.08,2.9,24.23,25.83,10,37.39l21,36.3c17.11-6.53,33.9,10.26,27.37,27.37l36.3,21c11.56-14.21,34.49-8.06,37.39,10H177c2.9-18.08,25.83-24.23,37.39-10l36.3-21c-6.53-17.11,10.26-33.9,27.37-27.37l21-36.3C284.77,202.79,290.92,179.86,309,177ZM156,237a81,81,0,1,1,81-81A81,81,0,0,1,156,237Z"/><circle class="dcom_i--3" cx="156" cy="156" r="45"/></g></g></svg>
