<svg xmlns="http://www.w3.org/2000/svg" viewBox="0 0 438 282"><defs><style>.ip_add_i--1{fill:#cedff1;}.ip_add_i--1,.ip_add_i--2,.ip_add_i--3{stroke:#0860b8;stroke-miterlimit:10;stroke-width:6px;}.ip_add_i--2{fill:#9cbfe3;}.ip_add_i--3{fill:none;}.ip_add_i--4{fill:#0860b8;}</style></defs><title>IPAddress</title><g id="Layer_2" data-name="Layer 2"><g id="Layer_1-2" data-name="Layer 1"><line class="ip_add_i--1" x1="75" y1="108" x2="75"/><rect class="ip_add_i--1" x="66" y="90" width="18" height="90"/><line class="ip_add_i--1" x1="363" y1="108" x2="363"/><rect class="ip_add_i--1" x="354" y="90" width="18" height="90"/><rect class="ip_add_i--2" x="12" y="252" width="414" height="27"/><rect class="ip_add_i--2" x="12" y="171" width="414" height="27"/><rect class="ip_add_i--1" x="3" y="189" width="432" height="72"/><rect class="ip_add_i--2" x="21" y="216" width="54" height="18"/><rect class="ip_add_i--2" x="93" y="216" width="54" height="18"/><rect class="ip_add_i--2" x="165" y="216" width="54" height="18"/><circle class="ip_add_i--3" cx="300" cy="225" r="9"/><circle class="ip_add_i--3" cx="354" cy="225" r="9"/><circle class="ip_add_i--3" cx="408" cy="225" r="9"/><line class="ip_add_i--1" x1="147" y1="171" x2="147" y2="189"/><line class="ip_add_i--1" x1="165" y1="171" x2="165" y2="189"/><line class="ip_add_i--1" x1="183" y1="171" x2="183" y2="189"/><line class="ip_add_i--1" x1="201" y1="171" x2="201" y2="189"/><line class="ip_add_i--1" x1="219" y1="171" x2="219" y2="189"/><line class="ip_add_i--1" x1="237" y1="171" x2="237" y2="189"/><line class="ip_add_i--1" x1="255" y1="171" x2="255" y2="189"/><line class="ip_add_i--1" x1="273" y1="171" x2="273" y2="189"/><line class="ip_add_i--1" x1="291" y1="171" x2="291" y2="189"/><path class="ip_add_i--4" d="M187.65,34.63V108H170.71V34.63Z"/><path class="ip_add_i--4" d="M240.89,34.63c6.38,0,13.42.88,19.25,6,6.27,5.5,7.15,12.76,7.15,17.82,0,9.24-3.52,14.41-6.27,17.27-5.83,5.94-13.53,6.49-18.7,6.49H232V108H215V34.63ZM232,68.4H238c2.31,0,6.38-.11,9.13-2.75a10.22,10.22,0,0,0,2.75-7.26,9.68,9.68,0,0,0-2.75-7.15c-2.53-2.42-6.16-2.75-9.46-2.75H232Z"/></g></g></svg>
