<svg xmlns="http://www.w3.org/2000/svg" viewBox="0 0 305 333"><defs><style>.cls-1{fill:#6ba0d4;}.cls-2{fill:#0860b8;}.cls-3{fill:#9cbfe3;}.cls-4{fill:none;stroke:#9cbfe3;stroke-miterlimit:10;stroke-width:4px;}</style></defs><title>SCCMInstall</title><g id="Layer_2" data-name="Layer 2"><g id="Layer_1-2" data-name="Layer 1"><path class="cls-1" d="M304.83,134.19l-1.22-1.95c-18.08-28.56-45.93-54.85-128.88-70.16-7.06-1.31-14.64-2.51-23.53-3.88C138.77,36.37,129.39,16.6,125.39,0c-9.51,2.88-62,21.14-71.66,34.36a4.88,4.88,0,0,0-.46.77l-.06.14,0,0c-1.19,2.59.48,5,1.86,6.45C74,63.32,101.23,76,101.23,119.85c0,40.33-36.32,77.71-72.68,107.93q-2.31,1.88-4.69,3.85l-1.14.79c-9.25,7.79-19.49,19.92-22,30.9-3.76,16.28,8.66,29.22,21.71,38.48,14.43,10.21,29.55,15.29,47,20.3,19,5.5,57.64,10.66,77.37,10.9,1.29,0,3.34-.18,3.34-.18s.94-1.78,1-1.89c1.7-3,24.57-45.81,30.74-82,4-23.62,7-55.33,1.32-85.89C224.38,150.67,272.43,138.71,304.83,134.19ZM135.73,171c18.18-16.11,31.17-31.53,40.24-45.77a178.1,178.1,0,0,1,29.71,23.34C185.09,154.05,161.66,161.32,135.73,171ZM63.46,209.67C73.67,204.46,83.18,200,92.53,196,84.36,214.19,72.92,232.3,68,240l-.87,1.36A41.48,41.48,0,0,1,63.46,209.67ZM104,95a173.41,173.41,0,0,1,28.76,8.57,370.09,370.09,0,0,0-27.71,25.11A115.5,115.5,0,0,0,104,95Zm26.15,78.08h0c.09-9.57-2.32-17.05-5.8-22.8,12-7.27,25.85-15,41.24-22.62A512.69,512.69,0,0,1,130.19,173.11Zm.54-34a102.88,102.88,0,0,0,11.76-31.56,248.77,248.77,0,0,1,23.92,11.93A358.31,358.31,0,0,0,130.73,139.12Zm7.43-43.2c-10.87-3.66-21.74-6.58-32-9.38,6.75-7.88,16.84-15.64,28-24l.29,0A82.42,82.42,0,0,1,138.16,95.92Zm-2,12.88a116.85,116.85,0,0,1-15.39,36.52,42.07,42.07,0,0,0-14.56-10.93A354.91,354.91,0,0,1,136.13,108.8Zm-17,47.63a34.7,34.7,0,0,1,7.53,18c-19.93,7.65-35.84,14.05-51.06,22C94.3,183.38,108.58,169.86,119.11,156.43ZM93.47,235.54c-4.33,1.44-10,3.29-16.57,5.39,5.6-8,18-31.73,23.63-48.34l1.89-.78c4.67,14.31,15.63,25.75,23.43,32C116.31,227.58,105.57,231.51,93.47,235.54Zm31.35-4.63c-6.09,15.32-14.07,30.35-21.86,43.64l-.19.07a110.28,110.28,0,0,1-11-7A95.36,95.36,0,0,1,72.19,249.1c9.23-2.46,18.3-5.1,27-8.07C108.3,237.92,116.88,234.46,124.82,230.91Zm-17.38-41.16c6.7-2.72,13.48-5.38,20.55-8.13q3.36-1.31,7-2.67c1,12.74-1.55,26.59-6.08,40.51C119.44,211.48,110.72,200.47,107.44,189.75Zm33.74-13,1-.35c8.89,5.8,28.9,17.44,36.15,20.19-9.78,7.23-23.59,15-43.25,23.42C140.43,201.12,141.75,186,141.18,176.72Zm156.66-46.21a10.11,10.11,0,0,0,2,1.65c-10.16.57-39.15,2.79-82.81,13.53,18.37-17.08,27.22-27.81,37.24-49.61C275.48,107.66,290.25,121.69,297.84,130.51Zm-87,16.69.07,0-.19.05.12-.08a106.34,106.34,0,0,0-26.41-28.31,469.4,469.4,0,0,1,66-23.74C242.66,108.36,229.93,122.62,210.8,147.2Zm21.7-61c5,1.85,9.75,3.89,14.25,6.06a363.25,363.25,0,0,0-63.17,19.6c7.09-14.24,10.27-27,11.07-37.64A298.32,298.32,0,0,1,232.5,86.17Zm-57.29,26.5a160.2,160.2,0,0,0-26.67-13A380.92,380.92,0,0,1,191,73.52C190.16,82.93,185.08,96.07,175.21,112.67Zm10.73-40.56c-15.05,6.6-27.84,13-42.06,23a70.4,70.4,0,0,0-6.12-32.06C153.92,65.73,170,68.49,185.94,72.11ZM143.7,57c-8.47-1.31-18.12-2.81-29.48-4.71a96,96,0,0,0,19.85-13.91A195.33,195.33,0,0,0,143.7,57ZM124.39,2.56a106.36,106.36,0,0,0,7.07,29.59c-12.22-3.2-42-7.6-52.2-8.89C96.9,12.7,121.41,3.83,124.39,2.56ZM76.13,25.21C85.28,28.84,116.57,35,133,36c0,.09.07.17.11.26A253.13,253.13,0,0,0,106.57,51l-4.7-.81c-7.39-7.06-21.39-20.86-26-24.88ZM68.69,30.6a65.75,65.75,0,0,1,5.27-4c3.7,4.62,11.68,14.76,17.57,21.81-9.37-1.65-21.86-4.07-29.9-7.07C61.51,37.31,65.81,33,68.69,30.6ZM66.21,47.5a213.62,213.62,0,0,0,21.27,6c3.49,10,6.28,19.15,8.44,27.45C89.08,68.2,78.86,56.89,66.21,47.5Zm24.62,6.76c14.8,3.37,30.47,6.13,39.58,7.64-6.59,3.35-21.76,12.49-28.93,21.3A155.32,155.32,0,0,0,90.83,54.26Zm11.26,89a51.07,51.07,0,0,1,11.4,7.32c-8.87,6.25-16.67,12.31-23.49,17.84A85.08,85.08,0,0,0,102.09,143.27Zm-18.24,34c6.64-4.83,16-11.42,27.58-18.89a166.35,166.35,0,0,1-43.95,37.87A172.13,172.13,0,0,0,83.85,177.26ZM9.67,259.17c2.27-11.75,13.65-26.27,26.78-34.75,6.42-3.73,12.49-7.1,18.3-10.21-.1.55-.18,1.14-.31,1.78a46.21,46.21,0,0,0-.89,9.42c.1,7.07,2.62,14.11,6.61,20.76C44.51,251,26.45,256.31,9.43,260.88A16.74,16.74,0,0,1,9.67,259.17Zm-.32,5c16.32-4,33.66-7.75,50.76-11.95C47.43,271,36.43,284.9,29.94,295.6,20.35,288.05,10,276.08,9.35,264.13Zm22.94,33.25c10.25-15.09,22.67-28.9,33.95-42.71a92.24,92.24,0,0,0,9.11,9.55,97,97,0,0,0,19.13,13.39C74.64,284.76,54,292.14,34.33,298.84ZM76.19,318c-1.16-.33-2.22-.66-3.14-1-17.6-5.89-25.6-9.26-36.23-16.47C45,298.26,80.39,289,97.65,283.41,88,299.26,79.37,311.75,76.23,317.89ZM148,330.57c-13.67-1.63-41.76-5.92-60.57-9.92,26.07-6,43.22-8.72,72.62-22.81C155.3,312.13,150.59,325,148,330.57ZM82.68,319.33a3.12,3.12,0,0,0-.46.17l-2.49-.6a305.34,305.34,0,0,0,26.49-35.71c25.31,10.56,50.68,12.49,53.95,12.81C148.22,300.64,85.72,318.45,82.68,319.33Zm90.6-66.58c-2.24,10.16-7.05,26.31-12,41.5-16.78-2.83-34.91-8-50.87-15.67,17.45-7.38,53.73-23.87,63.88-30.6C173.94,249.62,173.62,251.21,173.28,252.75Zm1.49-7.49c-10.35,6.2-44.91,19.36-61.07,25.36a244.14,244.14,0,0,0,18.78-42.22c17.86,10.94,36.54,15.53,42.3,16.77C174.78,245.2,174.77,245.23,174.77,245.26Zm.34-1.94c-13.75-3.8-26.66-10.42-38.31-18.07,24.19-12.05,40-23.7,41.77-25.56A254,254,0,0,1,175.11,243.32Zm3.36-49a307.62,307.62,0,0,1-31.23-19.71c8.79-3,18.47-6.18,28.68-9.32A240.37,240.37,0,0,1,178.47,194.31Z"/><rect class="cls-2" x="179" y="297" width="126" height="36"/><polygon class="cls-1" points="179 297 206 270 278 270 305 297 179 297"/><polygon class="cls-2" points="251 252 251 216 233 216 233 252 224 252 242 279 260 252 251 252"/><circle class="cls-3" cx="197" cy="315" r="9"/><line class="cls-4" x1="242" y1="315" x2="296" y2="315"/></g></g></svg>