<svg xmlns="http://www.w3.org/2000/svg" viewBox="0 0 294 366.71"><defs><style>.scrty_i--1{fill:#6ba0d4;}.scrty_i--1,.scrty_i--2,.scrty_i--3{stroke:#0860b8;stroke-miterlimit:10;stroke-width:6px;}.scrty_i--2{fill:#cedff1;}.scrty_i--3{fill:none;}.scrty_i--4{fill:#0860b8;}</style></defs><title>Security</title><g id="Layer_2" data-name="Layer 2"><g id="Layer_1-2" data-name="Layer 1"><path class="scrty_i--1" d="M3,75.35l144-72,144,72v55a260.49,260.49,0,0,1-144,233h0a260.49,260.49,0,0,1-144-233Z"/><path class="scrty_i--2" d="M31.8,97,147,39.35,262.2,97v44A208.4,208.4,0,0,1,147,327.35h0A208.4,208.4,0,0,1,31.8,141Z"/><rect class="scrty_i--1" x="111" y="165.35" width="72" height="72"/><path class="scrty_i--3" d="M120,165.35v-18a27,27,0,0,1,27-27h0a27,27,0,0,1,27,27v18"/><circle class="scrty_i--4" cx="146.25" cy="188.35" r="9"/><rect class="scrty_i--4" x="141.75" y="188.35" width="9" height="36"/></g></g></svg>
