<svg xmlns="http://www.w3.org/2000/svg" viewBox="0 0 612 495"><defs><style>.wake_i--1{fill:#6ba0d4;}.wake_i--2{fill:#0860b8;}.wake_i--3{fill:#041d39;}.wake_i--4{fill:#9cbfe3;}.wake_i--5{fill:#3980c6;}.wake_i--6{fill:#020f1d;}.wake_i--10,.wake_i--7,.wake_i--8{fill:none;stroke-miterlimit:10;}.wake_i--7,.wake_i--8{stroke:#3980c6;}.wake_i--10,.wake_i--7{stroke-width:6px;}.wake_i--8{stroke-width:3px;}.wake_i--9{fill:#cedff1;}.wake_i--10{stroke:#0860b8;}</style></defs><title>wakeup</title><g id="Layer_2" data-name="Layer 2"><g id="Layer_1-2" data-name="Layer 1"><g id="Layer_2-2" data-name="Layer 2"><g id="Layer_1-2-2" data-name="Layer 1-2"><rect class="wake_i--1" x="378" y="351" width="18" height="108"/><rect class="wake_i--2" x="378" y="351" width="18" height="36"/><rect class="wake_i--1" x="216" y="351" width="18" height="108"/><rect class="wake_i--2" x="216" y="351" width="18" height="36"/><rect class="wake_i--1" width="612" height="369"/><rect class="wake_i--3" x="18" y="18" width="576" height="333"/><polygon class="wake_i--4" points="432 486 180 486 216 450 396 450 432 486"/><polygon class="wake_i--4" points="459 477 153 477 135 495 477 495 459 477"/><rect class="wake_i--2" x="135" y="486" width="342" height="9"/></g></g><rect class="wake_i--5" x="303" y="111.67" width="6" height="18.67"/><rect class="wake_i--6" x="229" y="241.5" width="154" height="13" rx="6.5" ry="6.5"/><line class="wake_i--7" x1="306" y1="184.5" x2="242.5" y2="248"/><line class="wake_i--7" x1="306" y1="184.5" x2="369.5" y2="248"/><line class="wake_i--8" x1="306" y1="184.5" x2="242.5" y2="121"/><line class="wake_i--8" x1="306" y1="184.5" x2="369.5" y2="121"/><circle class="wake_i--9" cx="306" cy="184.5" r="63.5"/><circle class="wake_i--4" cx="306" cy="184.5" r="50.5"/><path class="wake_i--1" d="M306,144a50.51,50.51,0,0,1,50.25,45.5c.16-1.65.25-3.31.25-5a50.5,50.5,0,0,0-101,0c0,1.69.09,3.35.25,5A50.51,50.51,0,0,1,306,144Z"/><line class="wake_i--8" x1="306" y1="193.5" x2="306" y2="147.5"/><line class="wake_i--10" x1="300.17" y1="178.67" x2="324.33" y2="202.83"/><rect class="wake_i--9" x="296" y="106.83" width="20" height="7.33"/><path class="wake_i--1" d="M364.18,117.87h0a17.75,17.75,0,0,1,17.75,17.75v1a0,0,0,0,1,0,0h-35.5a0,0,0,0,1,0,0v-1a17.75,17.75,0,0,1,17.75-17.75Z" transform="translate(196.64 -220.25) rotate(45)"/><path class="wake_i--1" d="M230.07,117.87h35.5a0,0,0,0,1,0,0v1a17.75,17.75,0,0,1-17.75,17.75h0a17.75,17.75,0,0,1-17.75-17.75v-1A0,0,0,0,1,230.07,117.87Z" transform="translate(513.03 41.99) rotate(135)"/></g></g></svg>
