<svg xmlns="http://www.w3.org/2000/svg" viewBox="0 0 294 294"><defs><style>.os_i--1{fill:#cedff1;stroke:#0860b8;stroke-miterlimit:10;stroke-width:6px;}.os_i--2{fill:#0860b8;}</style></defs><title>OS</title><g id="Layer_2" data-name="Layer 2"><g id="Layer_1-2" data-name="Layer 1"><circle class="os_i--1" cx="147" cy="147" r="144"/><g id="Windows_10_Icon" data-name="Windows 10 Icon"><path class="os_i--2" d="M141,86.32q38.92-6,78-11.32,0,34.19,0,68.36c-26,.1-52,.49-78,.57Q140.94,115.12,141,86.32Z"/><path class="os_i--2" d="M75.05,95.52c19.54-3,39.17-5.62,58.8-8.08q0,28.35,0,56.69c-19.61,0-39.22.28-58.83.23Z"/><path class="os_i--2" d="M75.05,150.31c19.59-.06,39.19.25,58.78.22,0,18.95,0,37.9,0,56.85-19.58-2.9-39.19-5.44-58.8-8.09Z"/><path class="os_i--2" d="M140.85,150.81h78.08c0,22.72,0,45.45,0,68.19-26-3.89-52-7.5-78-11Q140.93,179.39,140.85,150.81Z"/></g></g></g></svg>
