<svg xmlns="http://www.w3.org/2000/svg" viewBox="0 0 308 308"><defs><style>.wmi_i--1{fill:#0860b8;}.wmi_i--2{fill:#6ba0d4;stroke:#0860b8;stroke-miterlimit:10;stroke-width:4px;}</style></defs><title>WMI</title><g id="Layer_2" data-name="Layer 2"><g id="Layer_1-2" data-name="Layer 1"><g id="Windows_10_Icon" data-name="Windows 10 Icon"><path class="wmi_i--1" d="M131.6,22.6Q209.32,10.7,287.24,0q.06,68.25,0,136.47c-51.89.19-103.77,1-155.68,1.15Q131.54,80.08,131.6,22.6Z"/><path class="wmi_i--1" d="M0,41c39-6,78.2-11.22,117.38-16.12q.06,56.6.07,113.17c-39.15,0-78.3.56-117.45.46Z"/><path class="wmi_i--1" d="M0,150.35c39.12-.13,78.23.49,117.35.43,0,37.83.1,75.67,0,113.5C78.3,258.49,39.15,253.42,0,248.13Z"/><path class="wmi_i--1" d="M131.37,152H287.24q.11,68.06,0,136.14c-51.81-7.77-103.73-15-155.64-22Q131.5,209.08,131.37,152Z"/></g><path class="wmi_i--2" d="M306,263.28V249.72a6.86,6.86,0,0,1-3.24-12.1L296,225.88a6.87,6.87,0,0,1-8.86-8.86l-11.74-6.78a6.86,6.86,0,0,1-12.1-3.24H249.72a6.86,6.86,0,0,1-12.1,3.24L225.88,217a6.87,6.87,0,0,1-8.86,8.86l-6.78,11.74a6.86,6.86,0,0,1-3.24,12.1v13.56a6.86,6.86,0,0,1,3.24,12.1L217,287.12a6.87,6.87,0,0,1,8.86,8.86l11.74,6.78a6.86,6.86,0,0,1,12.1,3.24h13.56a6.86,6.86,0,0,1,12.1-3.24L287.12,296a6.87,6.87,0,0,1,8.86-8.86l6.78-11.74A6.86,6.86,0,0,1,306,263.28Zm-49.5,19.43a26.21,26.21,0,1,1,26.21-26.21A26.22,26.22,0,0,1,256.5,282.71Z"/><path class="wmi_i--2" d="M225,196.58v-6.16a3.12,3.12,0,0,1-1.47-5.5l-3.09-5.34a3.12,3.12,0,0,1-4-4l-5.34-3.09a3.12,3.12,0,0,1-5.5-1.47h-6.16a3.12,3.12,0,0,1-5.5,1.47l-5.34,3.09a3.12,3.12,0,0,1-4,4l-3.09,5.34a3.12,3.12,0,0,1-1.47,5.5v6.16a3.12,3.12,0,0,1,1.47,5.5l3.09,5.34a3.12,3.12,0,0,1,4,4l5.34,3.09a3.12,3.12,0,0,1,5.5,1.47h6.16a3.12,3.12,0,0,1,5.5-1.47l5.34-3.09a3.12,3.12,0,0,1,4-4l3.09-5.34A3.12,3.12,0,0,1,225,196.58Zm-22.5,8.83a11.91,11.91,0,1,1,11.91-11.91A11.91,11.91,0,0,1,202.5,205.41Z"/></g></g></svg>
